<svg width="382" height="80" viewBox="0 0 382 80" fill="none" xmlns="http://www.w3.org/2000/svg">
<g clip-path="url(#clip0_71_250)">
<mask id="mask0_71_250" style="mask-type:luminance" maskUnits="userSpaceOnUse" x="0" y="0" width="382" height="80">
<path d="M382 0H0V80H382V0Z" fill="white"/>
</mask>
<g mask="url(#mask0_71_250)">
<path d="M114.576 53.3764C113.607 53.679 112.436 53.8814 111.01 53.8814C108.31 53.8814 106.222 52.618 105.355 49.8889H105.304C104.489 51.404 102.4 53.8814 97.1028 53.8814C91.806 53.8814 88.6467 51.2032 88.6467 47.1102C88.6467 41.048 94.912 39.2797 101.738 39.2797H104.947V38.1675C104.947 35.5914 103.368 33.8722 100.211 33.8722C97.5605 33.8722 95.8805 35.1867 95.6251 37.3072H89.31C89.718 31.6992 94.0978 28.6162 100.567 28.6162C107.851 28.6162 111.723 32.4049 111.723 38.671V46.6545C111.723 47.6664 112.181 48.1697 112.894 48.1697C113.352 48.1697 113.607 48.1187 114.168 47.9164L114.576 53.3732V53.3764ZM104.949 44.6344V43.0684H101.332C97.6135 43.0684 95.4228 44.1294 95.4228 46.3025C95.4228 47.9197 96.645 48.8294 99.0398 48.8294C102.706 48.8294 104.949 46.6052 104.949 44.6344Z" fill="white"/>
<path d="M127.055 53.3766C126.086 53.6792 124.915 53.8816 123.388 53.8816C119.313 53.8816 117.224 51.4567 117.224 47.0596V17.7539H124.202V46.6564C124.202 47.6171 124.711 48.1716 125.424 48.1716C125.832 48.1716 126.086 48.1206 126.647 47.9182L127.055 53.3766Z" fill="white"/>
<path d="M156.141 40.8442C156.141 48.5234 151.811 53.8799 145.036 53.8799C141.368 53.8799 138.924 52.3647 137.549 50.0912V63.8342H130.57V28.8185H137.345L137.498 32.4559C138.924 30.2334 141.521 28.6162 145.292 28.6162C151.607 28.6162 156.141 33.0119 156.141 40.8442ZM149.06 41.1469C149.06 37.0539 146.92 34.4267 143.507 34.4267C139.637 34.4267 137.549 37.6609 137.549 40.4395V42.0055C137.549 44.9865 139.739 48.0679 143.458 48.0679C146.768 48.0679 149.06 45.3419 149.06 41.1469Z" fill="white"/>
<path d="M183.495 37.7121V53.6282H176.516V39.4806C176.516 36.5507 174.988 34.6309 172.135 34.6309C169.078 34.6309 167.091 36.7021 167.091 39.7849V53.6282H160.062V17.7539H166.989V32.5087C168.467 30.2352 170.963 28.6181 174.731 28.6181C180.436 28.6181 183.495 32.6601 183.495 37.7121Z" fill="white"/>
<path d="M212.836 53.3764C211.867 53.679 210.696 53.8814 209.27 53.8814C206.571 53.8814 204.482 52.618 203.615 49.8889H203.563C202.749 51.404 200.659 53.8814 195.362 53.8814C190.066 53.8814 186.907 51.2032 186.907 47.1102C186.907 41.048 193.172 39.2797 199.998 39.2797H203.208V38.1675C203.208 35.5914 201.628 33.8722 198.47 33.8722C195.821 33.8722 194.14 35.1867 193.884 37.3072H187.571C187.978 31.6992 192.358 28.6162 198.827 28.6162C206.11 28.6162 209.984 32.4049 209.984 38.671V46.6545C209.984 47.6664 210.441 48.1697 211.155 48.1697C211.612 48.1697 211.867 48.1187 212.427 47.9164L212.836 53.3732V53.3764ZM203.208 44.6344V43.0684H199.591C195.873 43.0684 193.683 44.1294 193.683 46.3025C193.683 47.9197 194.905 48.8294 197.299 48.8294C200.966 48.8294 203.208 46.6052 203.208 44.6344Z" fill="white"/>
<path d="M238.05 28.8691L228.932 53.6276H221.138L212.022 28.8691H219.509L224.501 44.1783C224.756 44.8348 224.958 45.7955 225.213 47.0588H225.367C225.57 45.7955 225.774 44.8363 225.977 44.1783L230.97 28.8691H238.05Z" fill="white"/>
<path d="M262.754 42.764H245.181C245.69 46.5542 247.93 48.474 251.191 48.474C254.454 48.474 255.775 46.7565 256.184 45.4422H262.653C261.839 49.7375 258.374 53.8799 250.836 53.8799C243.296 53.8799 238.457 48.6764 238.457 41.2982C238.457 33.92 243.703 28.6162 250.936 28.6162C258.527 28.6162 262.754 33.8707 262.754 41.4495V42.764ZM245.282 38.773H256.235C255.777 35.236 253.84 33.7704 250.989 33.7704C248.138 33.7704 245.946 35.3364 245.284 38.773" fill="white"/>
<path d="M290.055 38.1159V53.6274H283.077V39.682C283.077 36.5497 281.599 34.63 278.647 34.63C275.692 34.63 273.602 36.7012 273.602 39.784V53.6274H266.625V28.8689H273.349L273.554 32.5079C275.03 30.1834 277.527 28.6172 281.346 28.6172C286.999 28.6172 290.055 32.5587 290.055 38.1159Z" fill="white"/>
<path d="M310.84 53.2231C309.922 53.5767 308.342 53.8796 306.509 53.8796C299.887 53.8796 296.22 50.0399 296.22 44.4317V34.3769H292.554V28.8692H296.629V21.8447H303.198V28.8692H310.634V34.3769H303.198V44.1291C303.198 46.5556 304.421 48.1201 307.63 48.1201C308.699 48.1201 309.669 47.9192 310.634 47.5656L310.84 53.2231Z" fill="white"/>
<path d="M336.564 28.8697V53.6282H329.84L329.636 49.991C328.21 52.3155 325.766 53.8815 322.302 53.8815C316.597 53.8815 313.692 49.889 313.692 44.7858V28.8697H320.724V43.1688C320.724 46.0493 322.2 47.8672 325.001 47.8672C327.598 47.8672 329.585 45.796 329.585 42.7132V28.8682L336.564 28.8697Z" fill="white"/>
<path d="M356.631 28.8179L356.58 35.589C356.174 35.4377 355.816 35.3374 354.848 35.3374C351.692 35.3374 349.145 37.3065 348.738 40.845V53.629H341.758V28.8689H348.484L348.636 32.9125C349.809 30.3857 351.795 28.6172 355.055 28.6172C355.615 28.6172 356.328 28.6682 356.633 28.8195" fill="white"/>
<path d="M382 42.764H364.428C364.937 46.5542 367.177 48.474 370.438 48.474C373.698 48.474 375.022 46.7565 375.429 45.4422H381.898C381.084 49.7375 377.62 53.8799 370.083 53.8799C362.545 53.8799 357.706 48.6764 357.706 41.2982C357.706 33.92 362.95 28.6162 370.185 28.6162C377.773 28.6162 382.002 33.8707 382.002 41.4495V42.7624L382 42.764ZM364.53 38.773H375.481C375.024 35.236 373.086 33.7704 370.233 33.7704C367.382 33.7704 365.19 35.3364 364.53 38.773Z" fill="white"/>
<path d="M75.5636 62.4893L65.1674 48.2666C64.5861 47.4638 63.4569 47.2423 62.5993 47.7584L61.8268 48.2301C61.3563 48.5168 61.0333 48.9931 60.9402 49.5333C60.8471 50.0703 60.9916 50.6246 61.3386 51.0484L72.5105 64.8074C72.8783 65.2568 73.4356 65.5148 74.0058 65.5148C74.0957 65.5148 74.1873 65.5084 74.2789 65.4956C74.9518 65.4001 75.5108 64.9715 75.7773 64.3518C76.0424 63.732 75.962 63.0341 75.5636 62.4893Z" fill="#F06831"/>
<path d="M33.4828 5.11133C33.4312 5.16231 33.3782 5.21488 33.325 5.26906C33.3782 5.21169 33.4312 5.15753 33.4828 5.11133Z" fill="white"/>
<path d="M66.8753 42.9596L8.22866 79.1893C7.33246 79.7293 6.35276 80.0003 5.37142 80.0003C4.20218 80.0003 3.05865 79.6209 2.07893 78.8658C0.283316 77.4878 -0.423365 75.1934 0.256013 73.0346L22.5968 3.46542C23.1958 1.65712 24.72 0.360241 26.5976 0.0639037C28.4768 -0.234027 30.3254 0.522749 31.4415 2.06339L32.4486 3.41124L31.7146 4.22219C29.7005 6.40807 28.2311 8.94447 27.3331 11.7246C27.224 11.9684 27.1966 12.1038 27.1421 12.2106L10.8145 65.1514C10.6523 65.7999 10.8964 66.5551 11.4955 67.0409C12.0945 67.5269 12.8847 67.6081 13.5641 67.2848L55.7194 44.0128L30.2178 10.458L29.9527 10.1027C29.9527 10.1027 31.2857 7.36879 33.2853 5.31354C33.2966 5.2992 33.3127 5.28485 33.3272 5.27052C33.38 5.21635 33.4316 5.16537 33.4845 5.11279L60.3995 41.7201L65.025 39.5596C65.9775 39.1008 67.0664 39.4529 67.5836 40.3674C68.0718 41.2868 67.7731 42.3924 66.8753 42.9596Z" fill="#F06831"/>
</g>
</g>
<defs>
<clipPath id="clip0_71_250">
<rect width="382" height="80" fill="white"/>
</clipPath>
</defs>
</svg>
