<svg width="160" height="160" viewBox="0 0 160 160" fill="none" xmlns="http://www.w3.org/2000/svg">
<path d="M10.0347 45.0045L83.7094 44.9952L117.16 44.9956C123.021 44.9957 129.173 44.9053 135.013 45.0202C134.916 48.181 135.013 51.8825 135.013 55.0998L135.011 75.4874L135.009 88.6025C135.009 92.1916 134.933 95.4322 135.298 99.0088C135.688 102.725 136.509 106.384 137.743 109.91C139.6 115.189 142.356 120.108 145.888 124.449C146.34 125.018 146.813 125.57 147.305 126.104C148.87 127.792 151.173 129.335 149.265 131.749C148.714 132.284 148.241 132.488 147.48 132.501C144.832 132.545 142.181 132.528 139.533 132.527L124.818 132.525L80.132 132.526L44.8091 132.527L33.5591 132.528C31.5688 132.53 29.576 132.559 27.5856 132.508C26.3378 132.477 25.8167 131.878 25.0047 131.047C24.5327 130.564 24.0738 130.075 23.6245 129.567C15.7604 120.79 11.0251 109.656 10.1586 97.9033C9.89291 94.5674 10.0022 90.3572 10.0018 86.9549L10.0016 72.0937L10.0028 54.3306C10.0021 51.5223 9.87182 47.6928 10.0347 45.0045ZM74.3398 117.439C91.5414 116.416 104.666 101.657 103.673 84.4541C102.68 67.2511 87.9453 54.1004 70.7405 55.0627C53.4924 56.0273 40.3016 70.8073 41.2967 88.0533C42.2919 105.3 57.0953 118.464 74.3398 117.439Z" fill="white" fill-opacity="0.09"/>
<path d="M71.1894 60.0284C85.7008 59.3148 98.0328 70.5206 98.7086 85.0337C99.3836 99.547 88.1453 111.849 73.6309 112.487C59.1701 113.122 46.9229 101.934 46.2499 87.4751C45.577 73.016 56.7322 60.7394 71.1894 60.0284ZM69.975 72.5638C68.772 72.817 67.868 72.9563 66.7527 73.5035C62.6645 75.5095 61.5222 80.8782 63.6113 84.6868C65.5536 88.2274 68.8809 88.9142 72.5989 88.7438C73.5251 88.7009 74.6601 88.7259 75.5569 88.9962C78.3539 90.0274 77.9171 94.5306 74.9223 94.9376C73.8941 95.0766 72.8698 95.0313 71.8468 95.029L67.0062 95.0157C65.6532 95.0118 63.8591 94.7907 62.9898 96.0313C62.2973 97.0196 62.436 98.9321 63.5213 99.5009C65.124 100.34 68.1774 99.9493 70.0062 100.019C69.9793 102.097 69.7452 105.439 72.9858 104.925C75.5335 104.18 74.9013 101.923 75.0205 99.8923C79.7805 99.404 82.7914 95.7532 82.3375 90.9641C82.1391 88.8665 81.1531 86.8806 79.5102 85.5392C78.4766 84.7048 77.2409 84.1579 75.928 83.954C75.0349 83.8079 73.9725 83.7649 73.0824 83.779C70.9075 83.8173 67.9524 84.0298 67.581 81.1571C67.3577 79.254 68.4575 77.6036 70.4491 77.5313C73.4216 77.4217 76.4101 77.5415 79.3852 77.5079C80.2805 77.4755 81.1805 77.3824 81.8078 76.6704C83.1844 75.1077 82.3094 72.7206 80.1797 72.5784C78.4789 72.4649 76.701 72.4999 74.9919 72.5288C75.0299 70.1952 75.3059 67.1856 71.8807 67.5978C69.4275 68.3203 70.1355 70.6614 69.975 72.5638Z" fill="white" fill-opacity="0.09"/>
<path d="M99.3594 10.029C100.034 9.99797 100.637 10.0107 101.31 10.0984C103.225 10.3492 105.025 11.1518 106.492 12.4083C109.729 15.1761 110.019 18.1332 110.006 22.043L109.991 26.2184C109.988 27.1663 109.932 28.2854 110.56 29.0763C111.341 30.0584 113.144 30.2325 114.084 29.3927C115.277 28.3273 114.993 26.3725 115.01 24.9105C115.03 23.2779 114.97 21.642 115.024 20.0018L121.449 19.9932C125.597 19.9893 128.879 19.7209 132.113 22.9634C135.3 26.1569 135.016 29.4576 135.014 33.5549L135.009 40.0123C131.128 40.071 127.138 40.0252 123.251 40.0253L101.375 40.0257L35.7422 40.026L9.99167 40.0253C10.0391 38.5282 9.96917 36.9951 10.0007 35.4943C10.1008 30.7246 9.21854 26.608 12.9666 22.878C14.2126 21.6257 15.7785 20.7395 17.4935 20.3158C19.3436 19.8529 22.8197 19.9964 24.8701 19.996L34.9851 20.0052C35.1733 13.6277 40.2318 9.25961 46.5664 10.2057C48.3444 10.4629 50.0232 11.1842 51.4336 12.297C55.7991 15.7895 54.9544 21.023 54.9951 25.9676C54.8777 27.7366 55.0982 29.8427 57.3919 29.9591C60.4012 30.1119 60.0141 26.4645 60.0098 24.6486C59.9982 23.0998 60 21.551 60.015 20.0023L89.9828 20.0036C90.1164 14.4973 93.9164 10.5462 99.3594 10.029ZM39.9692 19.988L45.8985 19.9973L50.0238 20.0016C49.7428 18.3411 49.509 17.1321 48.0338 16.0359C46.8761 15.1755 45.576 15.0562 44.1767 15.1859C41.2869 15.6045 40.3713 17.3709 39.9692 19.988ZM94.9696 19.9882L100.898 19.9973L105.023 20.0015C104.742 18.3409 104.509 17.1325 103.034 16.0359C101.878 15.1764 100.575 15.0555 99.1774 15.1866C96.2875 15.6015 95.3703 17.373 94.9696 19.9882Z" fill="white" fill-opacity="0.09"/>
<path d="M10.1291 117.844C10.1469 117.862 11.5349 120.736 11.6703 120.997C14.3029 126.007 17.6426 130.613 21.587 134.672C24.5172 137.719 26.3447 137.504 30.3304 137.5L36.1677 137.497L56.5635 137.496L108.088 137.495L125.178 137.496C128.457 137.48 131.735 137.488 135.014 137.52C134.876 141.704 135.816 144.667 132.682 147.902C132.175 148.375 131.612 148.785 131.006 149.123C129.895 149.73 128.772 149.994 127.512 150.01C124.693 150.048 121.856 150.026 119.037 150.025L102.985 150.024H54.297L29.3226 150.025L22.5079 150.029C20.618 150.032 16.9866 150.187 15.3117 149.676C13.3815 149.077 11.7694 147.734 10.8314 145.943C9.71138 143.802 10.0019 140.981 10.0008 138.588L10.0016 130.369L10.0064 122.11C10.0074 121.341 9.94896 118.42 10.1291 117.844Z" fill="white" fill-opacity="0.09"/>
</svg>
