<svg width="143" height="48" viewBox="0 0 143 48" fill="none" xmlns="http://www.w3.org/2000/svg">
<g clip-path="url(#clip0_126_1509)">
<mask id="mask0_126_1509" style="mask-type:luminance" maskUnits="userSpaceOnUse" x="0" y="0" width="143" height="48">
<path d="M143 0H0V48H143V0Z" fill="white"/>
</mask>
<g mask="url(#mask0_126_1509)">
<path d="M42.1952 9.19272L46.7926 2.65308L41.0577 7.86012C36.7991 3.17132 30.7015 0.209961 23.9263 0.209961C11.0535 0.209961 0.600342 10.8708 0.600342 23.9995C0.600342 37.1529 11.0535 47.7889 23.9263 47.7889C36.8233 47.7889 47.2521 37.1282 47.2521 23.9995C47.2765 18.3976 45.3649 13.2646 42.1952 9.19272ZM40.1624 31.8718C40.1624 36.684 36.3394 40.5584 31.6452 40.5584H16.2316C11.5133 40.5584 7.71428 36.6594 7.71428 31.8718V16.1519C7.71428 11.3397 11.5374 7.4653 16.2316 7.4653H31.6452C34.2584 7.4653 36.5814 8.64983 38.1299 10.5253L23.8537 23.5306L14.1507 16.8182L21.1678 30.5885C21.2162 30.6625 21.2647 30.7366 21.3373 30.8107C21.3614 30.86 21.3856 30.8846 21.4098 30.934C21.4824 31.0328 21.5308 31.1315 21.6276 31.2054C21.7002 31.2795 21.7728 31.3288 21.8454 31.4029C22.7406 32.2173 23.9263 32.4887 25.0393 32.2173H25.0635C25.2571 32.168 25.4507 32.0939 25.6443 31.9952C25.6685 31.9705 25.6926 31.9705 25.7411 31.9458C25.9104 31.8718 26.0556 31.7731 26.225 31.6497C26.2734 31.625 26.3218 31.5756 26.3702 31.5509C26.4428 31.5016 26.5396 31.4522 26.6122 31.3783C26.6606 31.3288 26.7089 31.2549 26.7574 31.2054C26.7815 31.1808 26.8057 31.1562 26.83 31.1315L26.9026 31.0328C26.9993 30.9094 27.0961 30.786 27.1687 30.6625L39.5576 12.9437C39.9446 13.9309 40.1624 15.0167 40.1624 16.1519V31.8718Z" fill="#0070E0"/>
<path d="M77.8374 41.0765C67.1905 41.0765 60.0524 34.1915 60.0524 23.9748C60.0524 13.9063 67.3602 6.87305 77.8374 6.87305C84.7578 6.87305 88.3149 9.56295 89.2343 10.3773L87.1049 15.9792C85.7256 14.8193 82.3863 12.7957 78.2973 12.7957C71.7399 12.7957 67.3358 17.2378 67.3358 23.8514C67.3358 30.3171 71.8363 34.8578 78.2973 34.8578C82.943 34.8578 85.9434 32.9823 87.5164 31.6004L89.8151 36.8815C86.8872 39.6209 82.8462 41.0765 77.8374 41.0765Z" fill="#0070E0"/>
<path d="M100.171 7.3418H93.0815V40.4845H100.171V7.3418Z" fill="#0070E0"/>
<path d="M105.519 40.4596V17.0896H112.609V40.4844H105.519V40.4596ZM109.076 13.2646C106.584 13.2646 104.962 11.8579 104.962 9.66157C104.962 7.51459 106.608 6.05859 109.076 6.05859C111.519 6.05859 113.19 7.51459 113.19 9.66157C113.166 11.8332 111.568 13.2646 109.076 13.2646Z" fill="#0070E0"/>
<path d="M129.691 41.0273C121.706 41.0273 116.335 36.1411 116.335 28.8611C116.335 21.5564 121.706 16.6455 129.691 16.6455C137.652 16.6455 143 21.5564 143 28.8611C142.976 36.1411 137.628 41.0273 129.691 41.0273ZM129.691 21.8772C126.013 21.8772 123.545 24.6164 123.545 28.713C123.545 32.8095 126.013 35.5488 129.691 35.5488C133.37 35.5488 135.838 32.8095 135.838 28.713C135.838 24.6164 133.37 21.8772 129.691 21.8772Z" fill="#0070E0"/>
</g>
</g>
<defs>
<clipPath id="clip0_126_1509">
<rect width="143" height="48" fill="white"/>
</clipPath>
</defs>
</svg>
