<svg width="224" height="48" viewBox="0 0 224 48" fill="none" xmlns="http://www.w3.org/2000/svg">
<g clip-path="url(#clip0_126_1525)">
<mask id="mask0_126_1525" style="mask-type:luminance" maskUnits="userSpaceOnUse" x="0" y="0" width="224" height="48">
<path d="M224 0H0V48H224V0Z" fill="white"/>
</mask>
<g mask="url(#mask0_126_1525)">
<path d="M58.3784 24.5514L61.3349 24.5352L61.3406 47.2314L58.5164 47.2329L58.5081 44.6972C55.736 47.8403 52.1787 48.094 48.4809 46.3736C45.6961 44.5979 44.5027 42.2914 44.5045 39.0234C44.5085 31.6063 53.1675 28.0538 58.3795 33.3868L58.3784 24.5514ZM53.9635 44.6651C55.9625 44.3052 57.6125 42.8999 58.2823 40.9871C58.9518 39.0743 58.5374 36.9501 57.1974 35.4274C55.8573 33.9048 53.7994 33.2193 51.8109 33.6337C48.7945 34.2621 46.8435 37.1911 47.4324 40.2083C48.021 43.2251 50.9308 45.2107 53.9635 44.6651Z" fill="#ECECEC"/>
<path d="M175.931 31.2014L180.151 31.2002C179.831 32.2489 179.317 33.5663 178.94 34.6192L174.204 47.6901L169.587 47.697C169.214 46.8755 168.658 45.1966 168.336 44.3063L165.898 37.5733C165.518 38.3629 164.929 40.0632 164.604 40.9282L162.087 47.6865L157.464 47.6966C155.417 42.3242 153.458 36.6252 151.485 31.2046L155.994 31.2033C156.433 32.1807 157.021 34.0236 157.398 35.1003L159.925 42.3386C161.085 38.8213 162.644 34.6864 163.963 31.2024L167.989 31.203L171.925 42.321C173.227 38.6026 174.561 34.8958 175.931 31.2014Z" fill="#1876D2"/>
<path d="M72.7212 30.7965C77.3208 30.1968 81.5425 33.4165 82.1675 38.0012C82.7929 42.5861 79.5868 46.8133 74.9934 47.4608C70.3659 48.1129 66.0894 44.8865 65.4596 40.268C64.8299 35.649 68.0869 31.4006 72.7212 30.7965ZM74.8532 44.6602C77.9202 44.0889 79.9376 41.1403 79.3527 38.0835C78.7681 35.0268 75.8041 33.0261 72.7414 33.6211C69.6958 34.2129 67.7032 37.1495 68.2849 40.1897C68.8662 43.2296 71.8028 45.2283 74.8532 44.6602Z" fill="#ECECEC"/>
<path d="M127.524 30.9093C128.017 30.8571 128.473 30.859 128.967 30.8849C131.023 30.9768 132.956 31.8806 134.343 33.3969C136.081 35.3361 136.508 37.6064 136.368 40.1201C132.392 39.9624 127.231 40.0941 123.187 40.1208C123.284 40.7953 123.5 41.4475 123.823 42.048C125.546 45.1806 129.618 45.4741 132.532 43.8846C133.076 43.5237 133.272 43.3249 133.733 42.8698L135.395 44.7862C130.863 49.6432 121.137 47.5929 120.344 40.4803C119.776 35.3893 122.383 31.5969 127.524 30.9093ZM123.19 37.9673L129.637 37.9763L133.66 37.9702C132.787 34.813 130.992 33.0067 127.52 33.4123C124.964 33.8677 123.601 35.4604 123.19 37.9673Z" fill="#ECECEC"/>
<path d="M103.577 24.5484L106.534 24.5371L106.539 39.074L115.343 31.023C116.339 30.9609 117.881 31.0037 118.92 30.9993C117.059 32.945 114.067 35.8932 112.085 37.6798C113.304 39.3916 115.173 41.6205 116.513 43.3027C117.461 44.5752 118.624 45.999 119.623 47.226L115.965 47.2289C114.008 44.7196 111.888 42.1687 109.884 39.6839C109.059 40.497 107.401 42.0341 106.534 42.7158L106.537 47.23L103.581 47.2343L103.577 24.5484Z" fill="#ECECEC"/>
<path d="M92.3899 30.9048C95.6676 30.6956 98.1782 31.5221 100.02 34.3246L97.7692 35.7705C95.9472 33.2355 92.7798 32.7454 90.117 34.3543C87.5602 35.8991 87.1451 40.091 88.7369 42.4903C89.5112 43.6567 90.7211 44.4658 92.0969 44.7369C93.7744 45.0725 95.2102 44.6993 96.6084 43.7704C97.121 43.3322 97.3356 43.0468 97.7544 42.5206L100.012 43.9064C99.8741 44.1421 99.722 44.3695 99.5565 44.5871C96.5224 48.6426 89.5307 48.1597 86.5403 44.3226C84.2688 41.4079 84.1886 37.0363 86.433 34.0784C87.9753 32.0454 89.9433 31.2482 92.3899 30.9048Z" fill="#ECECEC"/>
<path d="M140.918 27.4746L143.877 27.4822C143.804 28.3242 143.853 30.0983 143.851 31.0074L148.508 31.0001L148.51 33.4746C146.979 33.4502 145.385 33.4753 143.849 33.4775C143.87 35.4109 143.806 37.3543 143.838 39.2859C143.867 41.0446 143.561 42.6661 144.468 44.2425C145.994 45.3426 147.138 45.0174 148.691 44.2252C148.769 44.3367 149.053 44.9752 149.128 45.1365L149.641 46.3163C146.622 48.2114 141.676 47.6686 141.09 43.8906C140.645 41.0251 140.891 36.4499 140.904 33.4705L138.15 33.4693L138.14 31.0148L140.93 31.0075C140.877 29.8409 140.906 28.6441 140.918 27.4746Z" fill="#ECECEC"/>
<path d="M182.303 31.2002L187.153 31.2091L187.144 47.6836L182.314 47.6919L182.303 31.2002Z" fill="#1876D2"/>
<path d="M183.847 23.7048C185.453 23.5332 187.177 23.8529 187.668 25.6456C187.844 26.293 187.756 26.9839 187.423 27.5667C186.991 28.3084 186.346 28.6839 185.544 28.9005C181.365 29.3194 180.325 25.0143 183.847 23.7048Z" fill="#1876D2"/>
<path d="M6.0053 9.34224C8.95888 6.33141 13.136 4.67025 17.3419 4.61962C21.6977 4.56176 25.8974 6.2352 29.0142 9.27056C32.1367 12.3264 33.9161 16.4931 33.9614 20.8561C33.9785 22.8297 33.5519 25.3375 32.7422 27.1549C31.4383 30.6064 28.2459 34.1 24.8805 35.6343C24.8641 35.6417 24.8475 35.6491 24.831 35.6565C22.6991 36.7706 20.3138 37.3033 17.9149 37.3654C10.733 37.8122 4.43773 32.8063 1.99823 26.2765C1.1219 23.9363 0.99632 21.1819 1.27006 18.7214C1.69791 15.4408 3.54377 11.5854 6.0053 9.34224Z" fill="#58B0F6"/>
<path d="M1.27006 18.7211C5.90074 16.9713 10.2858 16.7658 14.8985 18.8348C18.9951 20.6859 22.1858 24.0857 23.7672 28.285C24.3854 29.9416 24.7256 31.6885 24.7738 33.4554C24.791 33.9781 24.7702 35.2234 24.831 35.6561C22.6991 36.77 20.3138 37.3027 17.9149 37.3648C10.733 37.8119 4.43773 32.806 1.99823 26.2762C1.1219 23.9359 0.99632 21.1816 1.27006 18.7211Z" fill="#2B87DD"/>
<path d="M1.99829 26.2762C5.277 25.2671 8.33962 25.183 11.4594 26.8258C14.1397 28.2573 16.1436 30.6877 17.0343 33.5872C17.2418 34.2592 17.6011 37.128 17.7026 37.2706L17.915 37.3651C10.7331 37.8119 4.43779 32.8061 1.99829 26.2762Z" fill="#1876D2"/>
<path d="M6.00537 9.34224C8.95892 6.33141 13.136 4.67025 17.342 4.61962C21.6977 4.56176 25.8975 6.23519 29.0143 9.27056C32.1368 12.3264 33.9161 16.4931 33.9615 20.8561C33.9786 22.8297 33.552 25.3375 32.7423 27.1549C32.4351 26.9862 31.8607 24.6075 31.6417 24.02C28.3952 15.3142 20.0554 9.35657 10.736 9.15089C10.011 9.1349 6.36392 9.50252 6.00537 9.34224Z" fill="#78BFF8"/>
<path d="M30.0769 0H30.1574C35.9412 3.85454 39.786 8.84561 41.1661 15.7631C42.4227 22.0158 41.1347 28.5103 37.5861 33.8149C34.0075 39.1648 28.4262 42.8582 22.0935 44.0676C21.9487 44.0958 21.803 44.1189 21.6567 44.1365L21.6565 48H14.5779C14.5035 47.0523 14.5532 45.2986 14.5503 44.2914C8.61244 43.5844 4.16672 40.957 0 36.8589V36.7994C0.830581 36.1574 2.46898 34.5376 3.26447 33.792C4.0367 34.7709 6.01075 36.2909 7.04661 36.9535C11.3931 39.7296 16.6638 40.6787 21.7093 39.5942C26.8229 38.483 31.281 35.3839 34.0961 30.9834C36.8783 26.6096 37.8144 21.3161 36.7006 16.2568C35.5053 10.9078 32.3706 6.70939 27.7718 3.79319C28.5652 2.54411 29.3338 1.27947 30.0769 0Z" fill="#12497E"/>
<path d="M215.045 47.9999C213.12 47.6527 211.598 47.3221 209.95 46.2029C206.192 43.6481 205.545 38.1472 208.072 34.5536C211.561 29.5927 220.161 29.7531 222.972 35.2865C223.6 36.5217 223.772 37.5586 224 38.8907V39.7879C223.944 40.1069 223.92 40.6292 223.717 40.7912C220.171 40.9861 215.04 40.8132 211.375 40.8251C212.924 44.9022 217.216 44.9105 220.281 42.5199C221.119 43.4525 221.97 44.3724 222.834 45.2797C220.766 47.3261 219.556 47.5264 216.744 47.9999H215.045ZM215.742 38.0191C216.948 38.0144 218.285 38.0379 219.48 37.9975C218.857 35.9884 217.529 34.4408 215.219 34.623C212.878 34.8836 211.929 35.827 211.321 38.027L215.742 38.0191Z" fill="#1876D2"/>
<path d="M191.533 42.7261C192.434 43.2 193.36 43.6652 194.338 43.907C195.757 44.2574 197.629 44.5346 199.054 44.1026C200.234 43.7453 201.233 42.5626 199.499 41.9159C196.551 40.8159 192.174 41.477 190.617 38.1015C190.202 37.1801 190.281 35.3731 190.709 34.4551C192.833 29.9035 200.775 30.509 204.343 32.4124C203.845 33.4773 203.198 34.7874 202.757 35.8645C200.743 34.7926 198.467 34.2835 196.214 34.8469C195.614 34.997 194.807 35.6492 194.857 36.3201C195.028 36.7481 195.37 36.9708 195.803 37.1365C198.17 38.0427 201.097 37.789 203.235 39.2921C204.789 40.3842 205.119 42.0119 204.753 43.7471C204.157 46.5856 201.156 47.581 198.614 47.8957C198.37 47.9289 198.06 47.9469 197.826 47.9996H196.046C193.975 47.6434 191.756 47.3399 189.949 46.1673C190.448 45.0846 191.08 43.807 191.533 42.7261Z" fill="#1876D2"/>
</g>
</g>
<defs>
<clipPath id="clip0_126_1525">
<rect width="224" height="48" fill="white"/>
</clipPath>
</defs>
</svg>
