<svg xmlns="http://www.w3.org/2000/svg" fill="none" viewBox="0 0 674 506" height="506" width="674">
<rect fill="#FAFAF9" rx="13.5235" height="377.814" width="399.79" y="64.186" x="136.605"></rect>
<path fill="#0F0E0D" d="M165.072 91.4001H167.878L173.44 100.9C173.417 100.427 173.406 99.8861 173.406 99.2775V91.4001H175.283V103.233H172.764L166.898 93.2257C166.921 93.6878 166.932 94.2062 166.932 94.7809V103.233H165.072V91.4001ZM180.465 103.504C179.868 103.504 179.349 103.38 178.91 103.132C178.47 102.884 178.127 102.518 177.879 102.033C177.642 101.548 177.524 100.957 177.524 100.258V95.0345H179.282V99.9368C179.282 100.636 179.417 101.176 179.688 101.56C179.969 101.932 180.392 102.117 180.955 102.117C181.361 102.117 181.705 102.022 181.987 101.83C182.28 101.639 182.505 101.362 182.663 101.002C182.82 100.641 182.899 100.219 182.899 99.7339V95.0345H184.641V103.233H182.916V102.811C182.916 102.63 182.928 102.45 182.95 102.27L182.967 102.101C182.753 102.529 182.432 102.873 182.003 103.132C181.575 103.38 181.062 103.504 180.465 103.504ZM186.783 95.0345H188.541V95.5416C188.541 95.767 188.53 95.9812 188.507 96.184C188.755 95.767 189.076 95.4289 189.471 95.1697C189.876 94.8993 190.35 94.764 190.891 94.764C191.409 94.764 191.871 94.9105 192.277 95.2035C192.683 95.4853 192.987 95.8628 193.19 96.3361C193.471 95.8741 193.843 95.4966 194.305 95.2035C194.779 94.9105 195.297 94.764 195.861 94.764C196.413 94.764 196.903 94.8936 197.331 95.1528C197.759 95.4008 198.092 95.7727 198.329 96.2685C198.577 96.7644 198.701 97.3617 198.701 98.0604V103.233H196.959V98.3647C196.959 97.6547 196.83 97.1081 196.571 96.7249C196.323 96.3418 195.939 96.1502 195.421 96.1502C195.06 96.1502 194.739 96.2516 194.457 96.4545C194.187 96.6461 193.979 96.9165 193.832 97.2659C193.686 97.604 193.612 97.9815 193.612 98.3985V103.233H191.871V98.3816C191.871 97.6716 191.747 97.125 191.499 96.7419C191.251 96.3474 190.868 96.1502 190.35 96.1502C189.989 96.1502 189.674 96.2516 189.403 96.4545C189.133 96.6461 188.918 96.9165 188.761 97.2659C188.614 97.6152 188.541 98.0097 188.541 98.4492V103.233H186.783V95.0345ZM205.14 103.504C204.531 103.504 203.996 103.38 203.534 103.132C203.083 102.873 202.734 102.529 202.486 102.101C202.508 102.348 202.519 102.596 202.519 102.844V103.233H200.761V91.4001H202.519V95.4402C202.519 95.6431 202.508 95.891 202.486 96.184C202.767 95.7558 203.128 95.412 203.568 95.1528C204.018 94.8936 204.542 94.764 205.14 94.764C205.861 94.764 206.503 94.95 207.067 95.3219C207.642 95.6825 208.087 96.1953 208.402 96.8602C208.718 97.5251 208.876 98.2914 208.876 99.1592C208.876 100.027 208.718 100.793 208.402 101.458C208.098 102.112 207.658 102.619 207.084 102.98C206.52 103.329 205.872 103.504 205.14 103.504ZM204.734 102.134C205.196 102.134 205.602 102.01 205.951 101.762C206.312 101.503 206.588 101.154 206.779 100.714C206.982 100.264 207.084 99.7452 207.084 99.1592C207.084 98.5732 206.982 98.0548 206.779 97.604C206.588 97.1419 206.312 96.7869 205.951 96.539C205.602 96.2798 205.196 96.1502 204.734 96.1502C204.283 96.1502 203.883 96.2742 203.534 96.5221C203.184 96.77 202.908 97.1194 202.705 97.5702C202.514 98.021 202.418 98.545 202.418 99.1423C202.418 99.7283 202.514 100.247 202.705 100.697C202.908 101.148 203.184 101.503 203.534 101.762C203.883 102.01 204.283 102.134 204.734 102.134ZM214.081 103.504C213.258 103.504 212.543 103.335 211.934 102.996C211.326 102.647 210.852 102.146 210.514 101.492C210.176 100.838 210.007 100.044 210.007 99.1085C210.007 98.2745 210.176 97.5307 210.514 96.8771C210.864 96.2122 211.343 95.6938 211.951 95.3219C212.56 94.95 213.241 94.764 213.997 94.764C214.808 94.764 215.501 94.9443 216.076 95.305C216.662 95.6656 217.107 96.1784 217.411 96.8433C217.715 97.4969 217.868 98.2633 217.868 99.1423V99.5142H211.782C211.782 100.044 211.883 100.506 212.086 100.9C212.289 101.295 212.56 101.599 212.898 101.813C213.247 102.027 213.642 102.134 214.081 102.134C214.599 102.134 215.033 102.01 215.383 101.762C215.743 101.515 215.963 101.137 216.042 100.63H217.8C217.744 101.171 217.563 101.661 217.259 102.101C216.955 102.529 216.527 102.873 215.974 103.132C215.433 103.38 214.802 103.504 214.081 103.504ZM216.042 98.2633C216.031 97.6096 215.845 97.0856 215.484 96.6911C215.123 96.2967 214.628 96.0995 213.997 96.0995C213.388 96.0995 212.881 96.308 212.475 96.7249C212.081 97.1307 211.855 97.6434 211.799 98.2633H216.042ZM219.54 95.0345H221.298V95.5247C221.298 95.8403 221.287 96.1502 221.264 96.4545C221.489 95.9473 221.811 95.5416 222.228 95.2374C222.656 94.9218 223.163 94.764 223.749 94.764C223.907 94.764 224.042 94.7753 224.155 94.7978V96.5052C223.986 96.4714 223.811 96.4545 223.631 96.4545C223.146 96.4545 222.729 96.5446 222.38 96.7249C222.03 96.9053 221.76 97.187 221.568 97.5702C221.388 97.9533 221.298 98.4379 221.298 99.024V103.233H219.54V95.0345ZM232.179 103.504C231.379 103.504 230.664 103.329 230.033 102.98C229.413 102.619 228.928 102.112 228.579 101.458C228.241 100.793 228.072 100.021 228.072 99.1423C228.072 98.2858 228.246 97.5251 228.596 96.8602C228.945 96.1953 229.43 95.6825 230.05 95.3219C230.669 94.95 231.379 94.764 232.179 94.764C232.968 94.764 233.673 94.95 234.293 95.3219C234.924 95.6825 235.414 96.1953 235.763 96.8602C236.124 97.5251 236.304 98.2858 236.304 99.1423C236.304 100.021 236.124 100.793 235.763 101.458C235.414 102.112 234.924 102.619 234.293 102.98C233.673 103.329 232.968 103.504 232.179 103.504ZM232.179 102.134C232.653 102.134 233.064 102.016 233.413 101.779C233.763 101.531 234.033 101.182 234.225 100.731C234.416 100.281 234.512 99.7508 234.512 99.1423C234.512 98.2182 234.298 97.4913 233.87 96.9616C233.442 96.4207 232.878 96.1502 232.179 96.1502C231.717 96.1502 231.312 96.2742 230.962 96.5221C230.613 96.7588 230.343 97.1025 230.151 97.5533C229.959 98.0041 229.864 98.5337 229.864 99.1423C229.864 100.066 230.072 100.799 230.489 101.34C230.906 101.87 231.469 102.134 232.179 102.134ZM238.529 96.4545H236.957V95.0345H238.529V93.8005C238.529 92.944 238.76 92.2847 239.222 91.8227C239.695 91.3493 240.298 91.1127 241.031 91.1127C241.223 91.1127 241.403 91.1296 241.572 91.1634C241.741 91.1859 241.882 91.2197 241.994 91.2648V92.6848C241.769 92.6397 241.583 92.6172 241.437 92.6172C241.087 92.6172 240.806 92.7186 240.591 92.9215C240.389 93.113 240.287 93.3948 240.287 93.7667V95.0345H241.994V96.4545H240.287V103.233H238.529V96.4545ZM252.476 102.692C252.476 102.557 252.488 102.36 252.51 102.101C252.273 102.529 251.924 102.873 251.462 103.132C251.011 103.38 250.482 103.504 249.873 103.504C249.129 103.504 248.476 103.335 247.912 102.996C247.349 102.647 246.903 102.146 246.577 101.492C246.261 100.838 246.103 100.055 246.103 99.1423C246.103 98.2971 246.267 97.542 246.594 96.8771C246.92 96.2122 247.371 95.6938 247.946 95.3219C248.532 94.95 249.191 94.764 249.924 94.764C250.521 94.764 251.045 94.8993 251.496 95.1697C251.947 95.4289 252.296 95.767 252.544 96.184C252.521 95.9135 252.51 95.66 252.51 95.4233V95.0345H254.217V106.715H252.476V102.844V102.692ZM250.228 102.134C250.679 102.134 251.079 102.016 251.428 101.779C251.789 101.543 252.065 101.199 252.257 100.748C252.459 100.286 252.561 99.7508 252.561 99.1423C252.561 98.2294 252.347 97.5026 251.918 96.9616C251.501 96.4207 250.944 96.1502 250.245 96.1502C249.794 96.1502 249.388 96.2742 249.028 96.5221C248.667 96.77 248.385 97.1194 248.183 97.5702C247.991 98.0097 247.895 98.5337 247.895 99.1423C247.895 99.7621 247.991 100.297 248.183 100.748C248.385 101.199 248.662 101.543 249.011 101.779C249.36 102.016 249.766 102.134 250.228 102.134ZM259.219 103.504C258.622 103.504 258.104 103.38 257.664 103.132C257.225 102.884 256.881 102.518 256.633 102.033C256.396 101.548 256.278 100.957 256.278 100.258V95.0345H258.036V99.9368C258.036 100.636 258.171 101.176 258.442 101.56C258.723 101.932 259.146 102.117 259.71 102.117C260.115 102.117 260.459 102.022 260.741 101.83C261.034 101.639 261.259 101.362 261.417 101.002C261.575 100.641 261.654 100.219 261.654 99.7339V95.0345H263.395V103.233H261.67V102.811C261.67 102.63 261.682 102.45 261.704 102.27L261.721 102.101C261.507 102.529 261.186 102.873 260.758 103.132C260.329 103.38 259.817 103.504 259.219 103.504ZM269.121 103.504C268.298 103.504 267.582 103.335 266.974 102.996C266.365 102.647 265.892 102.146 265.554 101.492C265.216 100.838 265.047 100.044 265.047 99.1085C265.047 98.2745 265.216 97.5307 265.554 96.8771C265.903 96.2122 266.382 95.6938 266.991 95.3219C267.599 94.95 268.281 94.764 269.036 94.764C269.848 94.764 270.541 94.9443 271.116 95.305C271.702 95.6656 272.147 96.1784 272.451 96.8433C272.755 97.4969 272.907 98.2633 272.907 99.1423V99.5142H266.822C266.822 100.044 266.923 100.506 267.126 100.9C267.329 101.295 267.599 101.599 267.937 101.813C268.287 102.027 268.681 102.134 269.121 102.134C269.639 102.134 270.073 102.01 270.422 101.762C270.783 101.515 271.003 101.137 271.082 100.63H272.84C272.783 101.171 272.603 101.661 272.299 102.101C271.995 102.529 271.566 102.873 271.014 103.132C270.473 103.38 269.842 103.504 269.121 103.504ZM271.082 98.2633C271.07 97.6096 270.884 97.0856 270.524 96.6911C270.163 96.2967 269.667 96.0995 269.036 96.0995C268.428 96.0995 267.921 96.308 267.515 96.7249C267.12 97.1307 266.895 97.6434 266.839 98.2633H271.082ZM274.58 95.0345H276.338V95.5247C276.338 95.8403 276.326 96.1502 276.304 96.4545C276.529 95.9473 276.85 95.5416 277.267 95.2374C277.696 94.9218 278.203 94.764 278.789 94.764C278.947 94.764 279.082 94.7753 279.195 94.7978V96.5052C279.025 96.4714 278.851 96.4545 278.67 96.4545C278.186 96.4545 277.769 96.5446 277.42 96.7249C277.07 96.9053 276.8 97.187 276.608 97.5702C276.428 97.9533 276.338 98.4379 276.338 99.024V103.233H274.58V95.0345ZM280.403 95.0345H282.161V103.233H280.403V95.0345ZM280.403 101.813H282.161V103.233H280.403V101.813ZM280.403 95.0345H281.282V96.4545H280.403V95.0345ZM280.319 91.6874H282.229V93.6314H280.319V91.6874ZM287.879 103.504C287.056 103.504 286.34 103.335 285.732 102.996C285.123 102.647 284.65 102.146 284.312 101.492C283.974 100.838 283.805 100.044 283.805 99.1085C283.805 98.2745 283.974 97.5307 284.312 96.8771C284.661 96.2122 285.14 95.6938 285.749 95.3219C286.357 94.95 287.039 94.764 287.794 94.764C288.606 94.764 289.299 94.9443 289.873 95.305C290.46 95.6656 290.905 96.1784 291.209 96.8433C291.513 97.4969 291.665 98.2633 291.665 99.1423V99.5142H285.58C285.58 100.044 285.681 100.506 285.884 100.9C286.087 101.295 286.357 101.599 286.695 101.813C287.045 102.027 287.439 102.134 287.879 102.134C288.397 102.134 288.831 102.01 289.18 101.762C289.541 101.515 289.761 101.137 289.84 100.63H291.598C291.541 101.171 291.361 101.661 291.057 102.101C290.753 102.529 290.324 102.873 289.772 103.132C289.231 103.38 288.6 103.504 287.879 103.504ZM289.84 98.2633C289.828 97.6096 289.642 97.0856 289.282 96.6911C288.921 96.2967 288.425 96.0995 287.794 96.0995C287.186 96.0995 286.679 96.308 286.273 96.7249C285.878 97.1307 285.653 97.6434 285.597 98.2633H289.84ZM296.414 103.504C295.67 103.504 295.022 103.38 294.47 103.132C293.929 102.884 293.507 102.534 293.202 102.084C292.909 101.622 292.746 101.086 292.712 100.478H294.47C294.493 101.007 294.667 101.424 294.994 101.729C295.332 102.033 295.8 102.185 296.397 102.185C296.904 102.185 297.316 102.078 297.631 101.864C297.947 101.639 298.105 101.345 298.105 100.985C298.105 100.681 297.992 100.438 297.767 100.258C297.541 100.078 297.192 99.9424 296.718 99.8523L295.586 99.6325C294.763 99.4747 294.126 99.193 293.676 98.7873C293.225 98.3816 292.999 97.8575 292.999 97.2152C292.999 96.7531 293.135 96.3361 293.405 95.9642C293.687 95.5924 294.076 95.2993 294.572 95.0852C295.067 94.8711 295.631 94.764 296.262 94.764C296.961 94.764 297.564 94.8767 298.071 95.1021C298.578 95.3275 298.972 95.6431 299.254 96.0488C299.536 96.4545 299.688 96.9391 299.711 97.5026H297.969C297.924 97.063 297.744 96.7193 297.428 96.4714C297.124 96.2235 296.718 96.0995 296.211 96.0995C295.772 96.0995 295.417 96.1953 295.146 96.3869C294.876 96.5672 294.741 96.8151 294.741 97.1307C294.741 97.4237 294.842 97.6491 295.045 97.8068C295.259 97.9646 295.614 98.0942 296.11 98.1956L297.243 98.4154C298.065 98.5732 298.702 98.8493 299.153 99.2437C299.603 99.6381 299.829 100.173 299.829 100.85C299.829 101.345 299.688 101.796 299.406 102.202C299.125 102.608 298.724 102.929 298.206 103.166C297.699 103.391 297.102 103.504 296.414 103.504ZM305.084 95.0345H306.842V95.5247C306.842 95.7276 306.83 95.9473 306.808 96.184C307.067 95.767 307.428 95.4289 307.89 95.1697C308.363 94.8993 308.898 94.764 309.496 94.764C310.239 94.764 310.887 94.9556 311.44 95.3388C312.003 95.7107 312.431 96.2291 312.724 96.894C313.029 97.5476 313.181 98.2971 313.181 99.1423C313.181 100.01 313.023 100.776 312.707 101.441C312.392 102.095 311.947 102.602 311.372 102.963C310.808 103.323 310.166 103.504 309.445 103.504C308.825 103.504 308.301 103.38 307.873 103.132C307.445 102.884 307.09 102.54 306.808 102.101C306.83 102.36 306.842 102.602 306.842 102.827V106.715H305.084V95.0345ZM309.073 102.134C309.535 102.134 309.941 102.01 310.29 101.762C310.639 101.503 310.91 101.148 311.101 100.697C311.293 100.247 311.389 99.7227 311.389 99.1254C311.389 98.5506 311.293 98.0379 311.101 97.5871C310.91 97.1363 310.639 96.7869 310.29 96.539C309.952 96.2798 309.546 96.1502 309.073 96.1502C308.633 96.1502 308.233 96.2742 307.873 96.5221C307.523 96.77 307.247 97.1194 307.044 97.5702C306.853 98.0097 306.757 98.5281 306.757 99.1254C306.757 99.7227 306.853 100.247 307.044 100.697C307.247 101.148 307.523 101.503 307.873 101.762C308.222 102.01 308.622 102.134 309.073 102.134ZM318.403 103.504C317.58 103.504 316.865 103.335 316.256 102.996C315.648 102.647 315.174 102.146 314.836 101.492C314.498 100.838 314.329 100.044 314.329 99.1085C314.329 98.2745 314.498 97.5307 314.836 96.8771C315.186 96.2122 315.665 95.6938 316.273 95.3219C316.882 94.95 317.564 94.764 318.319 94.764C319.13 94.764 319.823 94.9443 320.398 95.305C320.984 95.6656 321.429 96.1784 321.733 96.8433C322.038 97.4969 322.19 98.2633 322.19 99.1423V99.5142H316.104C316.104 100.044 316.206 100.506 316.408 100.9C316.611 101.295 316.882 101.599 317.22 101.813C317.569 102.027 317.964 102.134 318.403 102.134C318.922 102.134 319.355 102.01 319.705 101.762C320.065 101.515 320.285 101.137 320.364 100.63H322.122C322.066 101.171 321.885 101.661 321.581 102.101C321.277 102.529 320.849 102.873 320.296 103.132C319.756 103.38 319.124 103.504 318.403 103.504ZM320.364 98.2633C320.353 97.6096 320.167 97.0856 319.806 96.6911C319.446 96.2967 318.95 96.0995 318.319 96.0995C317.71 96.0995 317.203 96.308 316.797 96.7249C316.403 97.1307 316.177 97.6434 316.121 98.2633H320.364ZM323.862 95.0345H325.62V95.5247C325.62 95.8403 325.609 96.1502 325.586 96.4545C325.812 95.9473 326.133 95.5416 326.55 95.2374C326.978 94.9218 327.485 94.764 328.071 94.764C328.229 94.764 328.364 94.7753 328.477 94.7978V96.5052C328.308 96.4714 328.133 96.4545 327.953 96.4545C327.468 96.4545 327.051 96.5446 326.702 96.7249C326.353 96.9053 326.082 97.187 325.89 97.5702C325.71 97.9533 325.62 98.4379 325.62 99.024V103.233H323.862V95.0345ZM335.833 103.368C335.055 103.368 334.441 103.166 333.99 102.76C333.551 102.343 333.331 101.695 333.331 100.816V96.4545H331.641V95.0345H333.331V92.2115H335.089V95.0345H336.949V96.4545H335.089V100.596C335.089 101.047 335.191 101.379 335.393 101.593C335.596 101.796 335.901 101.898 336.306 101.898C336.498 101.898 336.701 101.881 336.915 101.847V103.25C336.791 103.284 336.627 103.312 336.425 103.335C336.233 103.357 336.036 103.368 335.833 103.368ZM340.841 103.047L337.595 95.0345H339.539L341.432 100.292C341.556 100.607 341.669 100.94 341.77 101.289C341.793 101.188 341.815 101.103 341.838 101.036C341.861 100.957 341.883 100.872 341.906 100.782C341.951 100.669 341.979 100.59 341.99 100.545C342.001 100.489 342.03 100.404 342.075 100.292L343.816 95.0345H345.641L341.28 106.715H339.421L340.841 103.047ZM346.76 95.0345H348.518V95.5247C348.518 95.7276 348.506 95.9473 348.484 96.184C348.743 95.767 349.104 95.4289 349.566 95.1697C350.039 94.8993 350.574 94.764 351.172 94.764C351.915 94.764 352.563 94.9556 353.116 95.3388C353.679 95.7107 354.107 96.2291 354.4 96.894C354.705 97.5476 354.857 98.2971 354.857 99.1423C354.857 100.01 354.699 100.776 354.383 101.441C354.068 102.095 353.623 102.602 353.048 102.963C352.485 103.323 351.842 103.504 351.121 103.504C350.501 103.504 349.977 103.38 349.549 103.132C349.121 102.884 348.766 102.54 348.484 102.101C348.506 102.36 348.518 102.602 348.518 102.827V106.715H346.76V95.0345ZM350.749 102.134C351.211 102.134 351.617 102.01 351.966 101.762C352.315 101.503 352.586 101.148 352.778 100.697C352.969 100.247 353.065 99.7227 353.065 99.1254C353.065 98.5506 352.969 98.0379 352.778 97.5871C352.586 97.1363 352.315 96.7869 351.966 96.539C351.628 96.2798 351.222 96.1502 350.749 96.1502C350.309 96.1502 349.909 96.2742 349.549 96.5221C349.199 96.77 348.923 97.1194 348.72 97.5702C348.529 98.0097 348.433 98.5281 348.433 99.1254C348.433 99.7227 348.529 100.247 348.72 100.697C348.923 101.148 349.199 101.503 349.549 101.762C349.898 102.01 350.298 102.134 350.749 102.134ZM360.079 103.504C359.256 103.504 358.541 103.335 357.932 102.996C357.324 102.647 356.85 102.146 356.512 101.492C356.174 100.838 356.005 100.044 356.005 99.1085C356.005 98.2745 356.174 97.5307 356.512 96.8771C356.862 96.2122 357.341 95.6938 357.949 95.3219C358.558 94.95 359.24 94.764 359.995 94.764C360.806 94.764 361.499 94.9443 362.074 95.305C362.66 95.6656 363.105 96.1784 363.409 96.8433C363.714 97.4969 363.866 98.2633 363.866 99.1423V99.5142H357.78C357.78 100.044 357.882 100.506 358.084 100.9C358.287 101.295 358.558 101.599 358.896 101.813C359.245 102.027 359.64 102.134 360.079 102.134C360.598 102.134 361.031 102.01 361.381 101.762C361.741 101.515 361.961 101.137 362.04 100.63H363.798C363.742 101.171 363.561 101.661 363.257 102.101C362.953 102.529 362.525 102.873 361.972 103.132C361.432 103.38 360.8 103.504 360.079 103.504ZM362.04 98.2633C362.029 97.6096 361.843 97.0856 361.482 96.6911C361.122 96.2967 360.626 96.0995 359.995 96.0995C359.386 96.0995 358.879 96.308 358.473 96.7249C358.079 97.1307 357.853 97.6434 357.797 98.2633H362.04Z"></path>
<path fill="#706D66" d="M410.337 103.233C410.348 102.557 410.466 101.971 410.692 101.475C410.928 100.968 411.249 100.512 411.655 100.106C412.061 99.7001 412.63 99.2268 413.362 98.6859L414.512 97.8237L414.546 97.7899C415.233 97.2828 415.769 96.7926 416.152 96.3192C416.535 95.8346 416.726 95.2937 416.726 94.6964C416.726 94.2794 416.642 93.9188 416.473 93.6145C416.304 93.299 416.062 93.0567 415.746 92.8876C415.442 92.7073 415.075 92.6172 414.647 92.6172C414.174 92.6172 413.763 92.7242 413.413 92.9384C413.075 93.1525 412.816 93.468 412.636 93.885C412.455 94.302 412.365 94.7978 412.365 95.3726V95.5416H410.472V95.2881C410.472 94.4429 410.646 93.7047 410.996 93.0736C411.345 92.4425 411.835 91.9579 412.467 91.6198C413.098 91.2817 413.824 91.1127 414.647 91.1127C415.436 91.1127 416.124 91.2648 416.71 91.5691C417.296 91.8621 417.746 92.2791 418.062 92.82C418.389 93.361 418.552 93.9864 418.552 94.6964C418.552 95.3275 418.423 95.9023 418.163 96.4207C417.904 96.9391 417.543 97.4237 417.081 97.8744C416.619 98.3252 416.016 98.8267 415.273 99.3789L414.461 99.9706C413.853 100.421 413.424 100.759 413.176 100.985C412.929 101.199 412.776 101.396 412.72 101.577H418.654V103.233H410.337ZM422.441 94.95C422.441 94.6006 422.453 94.2682 422.475 93.9526C422.194 94.4259 421.81 94.8147 421.326 95.119C420.841 95.412 420.3 95.5698 419.703 95.5924V93.8512C420.424 93.7498 421.061 93.4793 421.613 93.0398C422.177 92.589 422.543 92.0424 422.712 91.4001H424.233V103.233H422.441V94.95ZM422.441 101.644H424.233V103.233H422.441V101.644ZM426.497 101.002H428.729V103.233H426.497V101.002ZM434.696 103.504C433.794 103.504 433.016 103.363 432.363 103.081C431.709 102.799 431.213 102.405 430.875 101.898C430.537 101.391 430.368 100.805 430.368 100.14C430.368 99.4522 430.588 98.838 431.027 98.2971C431.478 97.7448 432.087 97.3448 432.853 97.0968C432.188 96.8602 431.658 96.5165 431.264 96.0657C430.87 95.6036 430.672 95.0514 430.672 94.409C430.672 93.7667 430.836 93.1976 431.163 92.7017C431.489 92.2058 431.957 91.817 432.566 91.5353C433.185 91.2535 433.895 91.1127 434.696 91.1127C435.496 91.1127 436.2 91.2535 436.809 91.5353C437.417 91.817 437.891 92.2058 438.229 92.7017C438.567 93.1863 438.736 93.7385 438.736 94.3583C438.736 95.012 438.539 95.5811 438.144 96.0657C437.75 96.539 437.214 96.8827 436.538 97.0968C437.304 97.3335 437.913 97.7223 438.364 98.2633C438.815 98.7929 439.04 99.3958 439.04 100.072C439.04 100.759 438.865 101.362 438.516 101.881C438.167 102.399 437.665 102.799 437.011 103.081C436.358 103.363 435.586 103.504 434.696 103.504ZM434.696 102.05C435.191 102.05 435.631 101.965 436.014 101.796C436.397 101.616 436.69 101.368 436.893 101.052C437.107 100.737 437.214 100.376 437.214 99.9706C437.214 99.3733 436.978 98.8774 436.504 98.483C436.042 98.0886 435.439 97.8914 434.696 97.8914C434.222 97.8914 433.794 97.9815 433.411 98.1618C433.028 98.3309 432.729 98.5732 432.515 98.8887C432.301 99.2043 432.194 99.5593 432.194 99.9537C432.194 100.574 432.425 101.081 432.887 101.475C433.349 101.858 433.952 102.05 434.696 102.05ZM434.696 96.3192C435.135 96.3192 435.524 96.2404 435.862 96.0826C436.2 95.9248 436.459 95.705 436.64 95.4233C436.831 95.1416 436.927 94.8204 436.927 94.4598C436.927 94.0879 436.837 93.761 436.656 93.4793C436.476 93.1976 436.217 92.9778 435.879 92.82C435.541 92.6622 435.146 92.5834 434.696 92.5834C434.256 92.5834 433.867 92.6622 433.529 92.82C433.191 92.9778 432.926 93.1976 432.735 93.4793C432.554 93.7498 432.464 94.0597 432.464 94.409C432.464 94.9725 432.667 95.4346 433.073 95.7952C433.49 96.1446 434.031 96.3192 434.696 96.3192ZM441.093 91.4001H442.935V96.5052C443.048 96.3587 443.161 96.2235 443.273 96.0995C443.397 95.9642 443.532 95.8234 443.679 95.6769L447.77 91.4001H450.136L444.49 97.2152L442.935 98.8211V103.233H441.093V91.4001ZM443.662 97.6378L444.93 96.37L450.863 103.233H448.378L443.662 97.6378ZM460.597 102.692C460.597 102.557 460.608 102.36 460.631 102.101C460.394 102.529 460.045 102.873 459.583 103.132C459.132 103.38 458.602 103.504 457.994 103.504C457.25 103.504 456.596 103.335 456.033 102.996C455.469 102.647 455.024 102.146 454.697 101.492C454.382 100.838 454.224 100.055 454.224 99.1423C454.224 98.2971 454.387 97.542 454.714 96.8771C455.041 96.2122 455.492 95.6938 456.066 95.3219C456.652 94.95 457.312 94.764 458.044 94.764C458.642 94.764 459.166 94.8993 459.616 95.1697C460.067 95.4289 460.417 95.767 460.664 96.184C460.642 95.9135 460.631 95.66 460.631 95.4233V95.0345H462.338V106.715H460.597V102.844V102.692ZM458.349 102.134C458.799 102.134 459.199 102.016 459.549 101.779C459.909 101.543 460.186 101.199 460.377 100.748C460.58 100.286 460.681 99.7508 460.681 99.1423C460.681 98.2294 460.467 97.5026 460.039 96.9616C459.622 96.4207 459.064 96.1502 458.365 96.1502C457.915 96.1502 457.509 96.2742 457.148 96.5221C456.788 96.77 456.506 97.1194 456.303 97.5702C456.112 98.0097 456.016 98.5337 456.016 99.1423C456.016 99.7621 456.112 100.297 456.303 100.748C456.506 101.199 456.782 101.543 457.131 101.779C457.481 102.016 457.887 102.134 458.349 102.134ZM467.34 103.504C466.743 103.504 466.224 103.38 465.785 103.132C465.345 102.884 465.001 102.518 464.753 102.033C464.517 101.548 464.399 100.957 464.399 100.258V95.0345H466.157V99.9368C466.157 100.636 466.292 101.176 466.562 101.56C466.844 101.932 467.267 102.117 467.83 102.117C468.236 102.117 468.58 102.022 468.861 101.83C469.154 101.639 469.38 101.362 469.537 101.002C469.695 100.641 469.774 100.219 469.774 99.7339V95.0345H471.515V103.233H469.791V102.811C469.791 102.63 469.802 102.45 469.825 102.27L469.842 102.101C469.628 102.529 469.306 102.873 468.878 103.132C468.45 103.38 467.937 103.504 467.34 103.504ZM477.241 103.504C476.419 103.504 475.703 103.335 475.095 102.996C474.486 102.647 474.013 102.146 473.675 101.492C473.336 100.838 473.167 100.044 473.167 99.1085C473.167 98.2745 473.336 97.5307 473.675 96.8771C474.024 96.2122 474.503 95.6938 475.111 95.3219C475.72 94.95 476.402 94.764 477.157 94.764C477.968 94.764 478.661 94.9443 479.236 95.305C479.822 95.6656 480.267 96.1784 480.572 96.8433C480.876 97.4969 481.028 98.2633 481.028 99.1423V99.5142H474.942C474.942 100.044 475.044 100.506 475.247 100.9C475.45 101.295 475.72 101.599 476.058 101.813C476.407 102.027 476.802 102.134 477.241 102.134C477.76 102.134 478.194 102.01 478.543 101.762C478.904 101.515 479.123 101.137 479.202 100.63H480.96C480.904 101.171 480.724 101.661 480.419 102.101C480.115 102.529 479.687 102.873 479.135 103.132C478.594 103.38 477.963 103.504 477.241 103.504ZM479.202 98.2633C479.191 97.6096 479.005 97.0856 478.644 96.6911C478.284 96.2967 477.788 96.0995 477.157 96.0995C476.548 96.0995 476.041 96.308 475.635 96.7249C475.241 97.1307 475.016 97.6434 474.959 98.2633H479.202ZM482.7 95.0345H484.458V95.5247C484.458 95.8403 484.447 96.1502 484.424 96.4545C484.65 95.9473 484.971 95.5416 485.388 95.2374C485.816 94.9218 486.323 94.764 486.909 94.764C487.067 94.764 487.202 94.7753 487.315 94.7978V96.5052C487.146 96.4714 486.971 96.4545 486.791 96.4545C486.306 96.4545 485.889 96.5446 485.54 96.7249C485.191 96.9053 484.92 97.187 484.729 97.5702C484.548 97.9533 484.458 98.4379 484.458 99.024V103.233H482.7V95.0345ZM488.524 95.0345H490.282V103.233H488.524V95.0345ZM488.524 101.813H490.282V103.233H488.524V101.813ZM488.524 95.0345H489.403V96.4545H488.524V95.0345ZM488.439 91.6874H490.349V93.6314H488.439V91.6874ZM495.999 103.504C495.177 103.504 494.461 103.335 493.852 102.996C493.244 102.647 492.771 102.146 492.433 101.492C492.094 100.838 491.925 100.044 491.925 99.1085C491.925 98.2745 492.094 97.5307 492.433 96.8771C492.782 96.2122 493.261 95.6938 493.869 95.3219C494.478 94.95 495.16 94.764 495.915 94.764C496.726 94.764 497.419 94.9443 497.994 95.305C498.58 95.6656 499.025 96.1784 499.33 96.8433C499.634 97.4969 499.786 98.2633 499.786 99.1423V99.5142H493.7C493.7 100.044 493.802 100.506 494.005 100.9C494.207 101.295 494.478 101.599 494.816 101.813C495.165 102.027 495.56 102.134 495.999 102.134C496.518 102.134 496.952 102.01 497.301 101.762C497.662 101.515 497.881 101.137 497.96 100.63H499.718C499.662 101.171 499.482 101.661 499.177 102.101C498.873 102.529 498.445 102.873 497.893 103.132C497.352 103.38 496.721 103.504 495.999 103.504ZM497.96 98.2633C497.949 97.6096 497.763 97.0856 497.402 96.6911C497.042 96.2967 496.546 96.0995 495.915 96.0995C495.306 96.0995 494.799 96.308 494.393 96.7249C493.999 97.1307 493.774 97.6434 493.717 98.2633H497.96ZM504.535 103.504C503.791 103.504 503.143 103.38 502.591 103.132C502.05 102.884 501.627 102.534 501.323 102.084C501.03 101.622 500.867 101.086 500.833 100.478H502.591C502.613 101.007 502.788 101.424 503.115 101.729C503.453 102.033 503.921 102.185 504.518 102.185C505.025 102.185 505.436 102.078 505.752 101.864C506.067 101.639 506.225 101.345 506.225 100.985C506.225 100.681 506.113 100.438 505.887 100.258C505.662 100.078 505.312 99.9424 504.839 99.8523L503.706 99.6325C502.884 99.4747 502.247 99.193 501.796 98.7873C501.345 98.3816 501.12 97.8575 501.12 97.2152C501.12 96.7531 501.255 96.3361 501.526 95.9642C501.808 95.5924 502.196 95.2993 502.692 95.0852C503.188 94.8711 503.752 94.764 504.383 94.764C505.081 94.764 505.684 94.8767 506.191 95.1021C506.699 95.3275 507.093 95.6431 507.375 96.0488C507.656 96.4545 507.809 96.9391 507.831 97.5026H506.09C506.045 97.063 505.865 96.7193 505.549 96.4714C505.245 96.2235 504.839 96.0995 504.332 96.0995C503.892 96.0995 503.537 96.1953 503.267 96.3869C502.996 96.5672 502.861 96.8151 502.861 97.1307C502.861 97.4237 502.963 97.6491 503.166 97.8068C503.38 97.9646 503.735 98.0942 504.23 98.1956L505.363 98.4154C506.186 98.5732 506.823 98.8493 507.273 99.2437C507.724 99.6381 507.949 100.173 507.949 100.85C507.949 101.345 507.809 101.796 507.527 102.202C507.245 102.608 506.845 102.929 506.327 103.166C505.82 103.391 505.222 103.504 504.535 103.504Z"></path>
<line stroke-width="0.845221" stroke="#E6E5E3" y2="129.691" x2="536.395" y1="129.691" x1="136.605"></line>
<path stroke-linejoin="round" stroke-width="3.38089" stroke="#FAFAF9" fill="#0E4D53" d="M336.923 163.922C362.626 163.922 387.669 172.059 408.463 187.167C429.257 202.275 444.735 223.578 452.678 248.023C460.62 272.468 460.62 298.8 452.678 323.245C444.735 347.69 429.257 368.993 408.463 384.101L336.923 285.634L336.923 163.922Z"></path>
<path stroke-linejoin="round" stroke-width="3.38089" stroke="#FAFAF9" fill="#1E6973" d="M408.463 384.101C391.878 396.151 372.517 403.816 352.177 406.386C331.838 408.955 311.179 406.346 292.118 398.799C273.056 391.252 256.21 379.012 243.142 363.216C230.074 347.419 221.208 328.578 217.367 308.44L336.923 285.634L408.463 384.101Z"></path>
<path stroke-linejoin="round" stroke-width="3.38089" stroke="#FAFAF9" fill="#388590" d="M217.367 308.44C212.06 280.619 216.621 251.818 230.266 226.999L336.923 285.634L217.367 308.44Z"></path>
<path stroke-linejoin="round" stroke-width="3.38089" stroke="#FAFAF9" fill="#429AA4" d="M230.266 226.999C240.142 209.033 254.397 193.854 271.706 182.869L336.923 285.634L230.266 226.999Z"></path>
<path stroke-linejoin="round" stroke-width="3.38089" stroke="#FAFAF9" fill="#61ACAF" d="M271.706 182.869C282.49 176.025 294.284 170.922 306.654 167.746L336.923 285.634L271.706 182.869Z"></path>
<path stroke-linejoin="round" stroke-width="3.38089" stroke="#FAFAF9" fill="#6F9A9E" d="M306.654 167.746C316.543 165.207 326.713 163.922 336.923 163.922L336.923 285.634L306.654 167.746Z"></path>
<rect fill="white" rx="2.95828" height="32.9636" width="145.487" y="252.248" x="362.702"></rect>
<rect stroke-width="0.845221" stroke="#E5E4E1" rx="2.95828" height="32.9636" width="145.487" y="252.248" x="362.702"></rect>
<rect fill="#0E4D53" rx="1.69044" height="13.5235" width="13.5235" y="261.968" x="372.422"></rect>
<path fill="#0F0D0B" d="M394.076 262.08H395.461V271.558H401.014V272.729H394.076V262.08ZM402.287 265.396H403.595V272.729H402.287V265.396ZM402.287 271.649H403.595V272.729H402.287V271.649ZM402.287 265.396H402.941V266.477H402.287V265.396ZM402.165 262.445H403.686V264.012H402.165V262.445ZM408.454 272.851C407.846 272.851 407.343 272.684 406.948 272.349C406.562 272.004 406.37 271.452 406.37 270.691V266.477H405.001V265.396H406.37V262.977H407.678V265.396H409.2V266.477H407.678V270.554C407.678 270.96 407.769 271.249 407.952 271.421C408.145 271.594 408.414 271.68 408.758 271.68C408.911 271.68 409.093 271.665 409.306 271.634V272.76C409.174 272.79 409.037 272.811 408.895 272.821C408.753 272.841 408.606 272.851 408.454 272.851ZM410.874 265.396H412.183V272.729H410.874V265.396ZM410.874 271.649H412.183V272.729H410.874V271.649ZM410.874 265.396H411.529V266.477H410.874V265.396ZM410.753 262.445H412.274V264.012H410.753V262.445ZM417.498 276.122C416.859 276.122 416.296 276.011 415.809 275.788C415.333 275.564 414.962 275.25 414.699 274.844C414.435 274.439 414.303 273.967 414.303 273.429H415.596C415.596 273.926 415.769 274.327 416.114 274.631C416.458 274.946 416.925 275.103 417.513 275.103C418.213 275.103 418.756 274.91 419.141 274.525C419.527 274.149 419.719 273.581 419.719 272.821V271.923C419.719 271.761 419.719 271.599 419.719 271.436C419.527 271.812 419.212 272.111 418.776 272.334C418.34 272.547 417.853 272.653 417.316 272.653C416.646 272.653 416.058 272.501 415.551 272.197C415.054 271.893 414.668 271.462 414.394 270.904C414.121 270.336 413.984 269.677 413.984 268.926C413.984 268.186 414.131 267.531 414.425 266.963C414.719 266.385 415.12 265.939 415.627 265.625C416.144 265.31 416.722 265.153 417.361 265.153C417.919 265.153 418.396 265.275 418.791 265.518C419.187 265.751 419.496 266.04 419.719 266.385C419.719 266.182 419.719 265.985 419.719 265.792V265.396H421.028V272.364C421.028 273.622 420.734 274.56 420.145 275.179C419.557 275.808 418.675 276.122 417.498 276.122ZM417.574 271.634C418.01 271.634 418.396 271.523 418.73 271.299C419.075 271.076 419.339 270.762 419.522 270.356C419.714 269.94 419.811 269.464 419.811 268.926C419.811 268.399 419.714 267.927 419.522 267.511C419.329 267.095 419.06 266.771 418.715 266.537C418.381 266.304 418 266.187 417.574 266.187C417.138 266.187 416.748 266.304 416.403 266.537C416.068 266.761 415.804 267.08 415.612 267.496C415.429 267.912 415.338 268.388 415.338 268.926C415.338 269.464 415.429 269.94 415.612 270.356C415.804 270.762 416.068 271.076 416.403 271.299C416.748 271.523 417.138 271.634 417.574 271.634ZM425.365 272.958C424.898 272.958 424.472 272.866 424.087 272.684C423.701 272.501 423.397 272.243 423.174 271.908C422.951 271.563 422.839 271.168 422.839 270.721C422.839 270.062 423.062 269.545 423.508 269.169C423.965 268.794 424.553 268.551 425.273 268.439L426.84 268.196C427.114 268.155 427.307 268.079 427.418 267.968C427.53 267.856 427.586 267.689 427.586 267.465C427.586 267.07 427.449 266.761 427.175 266.537C426.901 266.304 426.546 266.187 426.11 266.187C425.562 266.187 425.141 266.324 424.847 266.598C424.553 266.862 424.396 267.227 424.376 267.694H423.067C423.088 267.237 423.214 266.816 423.448 266.431C423.681 266.045 424.016 265.736 424.452 265.503C424.898 265.27 425.415 265.153 426.004 265.153C426.602 265.153 427.114 265.264 427.54 265.488C427.976 265.711 428.306 266.03 428.529 266.446C428.752 266.862 428.864 267.354 428.864 267.922V272.729H427.616V272.364C427.616 272.151 427.616 271.943 427.616 271.741C427.434 272.126 427.145 272.425 426.749 272.638C426.364 272.851 425.902 272.958 425.365 272.958ZM425.547 271.938C425.933 271.938 426.277 271.857 426.582 271.695C426.896 271.523 427.14 271.289 427.312 270.995C427.495 270.691 427.586 270.346 427.586 269.961V268.88C427.545 268.951 427.454 269.012 427.312 269.063C427.18 269.114 427.003 269.159 426.779 269.2L425.714 269.398C425.248 269.489 424.878 269.641 424.604 269.854C424.33 270.067 424.193 270.356 424.193 270.721C424.193 271.086 424.32 271.381 424.573 271.604C424.837 271.827 425.162 271.938 425.547 271.938ZM433.548 272.851C432.94 272.851 432.438 272.684 432.042 272.349C431.657 272.004 431.464 271.452 431.464 270.691V266.477H430.095V265.396H431.464V262.977H432.772V265.396H434.294V266.477H432.772V270.554C432.772 270.96 432.864 271.249 433.046 271.421C433.239 271.594 433.508 271.68 433.853 271.68C434.005 271.68 434.187 271.665 434.4 271.634V272.76C434.268 272.79 434.131 272.811 433.989 272.821C433.847 272.841 433.7 272.851 433.548 272.851ZM435.968 265.396H437.277V272.729H435.968V265.396ZM435.968 271.649H437.277V272.729H435.968V271.649ZM435.968 265.396H436.623V266.477H435.968V265.396ZM435.847 262.445H437.368V264.012H435.847V262.445ZM442.668 272.958C441.968 272.958 441.345 272.795 440.797 272.471C440.249 272.146 439.823 271.69 439.519 271.102C439.215 270.503 439.063 269.819 439.063 269.048C439.063 268.297 439.215 267.628 439.519 267.039C439.823 266.441 440.249 265.98 440.797 265.655C441.345 265.32 441.968 265.153 442.668 265.153C443.358 265.153 443.977 265.32 444.524 265.655C445.072 265.98 445.498 266.441 445.802 267.039C446.117 267.628 446.274 268.297 446.274 269.048C446.274 269.819 446.117 270.503 445.802 271.102C445.498 271.69 445.072 272.146 444.524 272.471C443.977 272.795 443.358 272.958 442.668 272.958ZM442.668 271.938C443.125 271.938 443.52 271.817 443.855 271.573C444.2 271.33 444.464 270.99 444.646 270.554C444.829 270.118 444.92 269.616 444.92 269.048C444.92 268.186 444.712 267.496 444.296 266.979C443.891 266.451 443.348 266.187 442.668 266.187C442.222 266.187 441.826 266.309 441.482 266.553C441.137 266.786 440.873 267.121 440.691 267.557C440.508 267.983 440.417 268.48 440.417 269.048C440.417 269.92 440.62 270.62 441.025 271.147C441.431 271.675 441.979 271.938 442.668 271.938ZM448.048 265.396H449.341V265.898C449.341 266.061 449.341 266.223 449.341 266.385C449.554 266.04 449.868 265.751 450.284 265.518C450.7 265.275 451.141 265.153 451.608 265.153C452.165 265.153 452.647 265.27 453.053 265.503C453.459 265.726 453.768 266.061 453.981 266.507C454.204 266.953 454.316 267.486 454.316 268.104V272.729H453.007V268.272C453.007 267.562 452.881 267.039 452.627 266.705C452.373 266.36 451.963 266.187 451.395 266.187C450.979 266.187 450.614 266.284 450.299 266.477C449.995 266.669 449.762 266.928 449.599 267.252C449.437 267.577 449.356 267.932 449.356 268.317V272.729H448.048V265.396Z"></path>
<path fill="#0F0D0B" d="M466.82 272.958C466.1 272.958 465.461 272.811 464.903 272.516C464.355 272.212 463.924 271.786 463.61 271.239C463.306 270.681 463.153 270.037 463.153 269.306C463.153 268.637 463.26 268.033 463.473 267.496C463.696 266.958 464.016 266.37 464.431 265.731L466.774 262.08H468.357L465.664 266.157C465.856 266.025 466.08 265.924 466.333 265.853C466.587 265.782 466.861 265.746 467.155 265.746C467.784 265.746 468.357 265.898 468.874 266.203C469.391 266.497 469.797 266.918 470.091 267.465C470.395 268.003 470.547 268.617 470.547 269.306C470.547 270.047 470.385 270.696 470.061 271.254C469.746 271.801 469.305 272.222 468.737 272.516C468.179 272.811 467.54 272.958 466.82 272.958ZM466.85 271.847C467.307 271.847 467.707 271.746 468.052 271.543C468.407 271.33 468.681 271.036 468.874 270.66C469.067 270.275 469.163 269.839 469.163 269.352C469.163 268.612 468.955 268.008 468.539 267.542C468.133 267.075 467.586 266.842 466.896 266.842C466.44 266.842 466.034 266.948 465.679 267.161C465.324 267.374 465.05 267.673 464.857 268.059C464.665 268.434 464.568 268.865 464.568 269.352C464.568 269.839 464.66 270.275 464.842 270.66C465.035 271.036 465.304 271.33 465.648 271.543C465.993 271.746 466.394 271.847 466.85 271.847ZM472.195 274.373C472.458 274.291 472.656 274.149 472.788 273.947C472.92 273.744 472.986 273.414 472.986 272.958V272.729H472.179V270.965H473.914V272.897C473.914 273.627 473.762 274.175 473.457 274.54C473.153 274.915 472.732 275.143 472.195 275.225V274.373ZM479.257 268.439C479.054 268.581 478.821 268.693 478.557 268.774C478.293 268.845 478.014 268.88 477.72 268.88C477.041 268.88 476.437 268.728 475.91 268.424C475.393 268.12 474.992 267.709 474.708 267.192C474.424 266.664 474.282 266.081 474.282 265.442C474.282 264.752 474.444 264.134 474.769 263.586C475.093 263.038 475.535 262.612 476.092 262.308C476.66 261.993 477.289 261.836 477.979 261.836C478.658 261.836 479.272 261.988 479.82 262.293C480.378 262.597 480.814 263.033 481.128 263.601C481.443 264.169 481.6 264.828 481.6 265.579C481.6 266.208 481.498 266.786 481.296 267.313C481.093 267.831 480.794 268.419 480.398 269.078L478.222 272.729H476.64L479.257 268.439ZM477.949 267.785C478.395 267.785 478.785 267.684 479.12 267.481C479.465 267.268 479.729 266.979 479.911 266.613C480.104 266.248 480.2 265.843 480.2 265.396C480.2 264.92 480.104 264.499 479.911 264.134C479.729 263.758 479.465 263.469 479.12 263.266C478.785 263.064 478.395 262.962 477.949 262.962C477.492 262.962 477.091 263.064 476.747 263.266C476.412 263.469 476.148 263.758 475.955 264.134C475.773 264.499 475.682 264.92 475.682 265.396C475.682 265.843 475.773 266.248 475.955 266.613C476.148 266.979 476.412 267.268 476.747 267.481C477.091 267.684 477.492 267.785 477.949 267.785ZM484.433 272.729C484.525 271.502 484.733 270.331 485.057 269.215C485.382 268.099 485.823 267.045 486.381 266.051C486.949 265.057 487.633 264.139 488.435 263.297H482.653V262.08H489.697V263.388C488.602 264.605 487.704 266.03 487.005 267.663C486.315 269.296 485.934 270.985 485.863 272.729H484.433ZM493.89 272.958C493.17 272.958 492.531 272.811 491.973 272.516C491.425 272.212 490.994 271.786 490.68 271.239C490.376 270.681 490.224 270.037 490.224 269.306C490.224 268.637 490.33 268.033 490.543 267.496C490.766 266.958 491.086 266.37 491.502 265.731L493.845 262.08H495.427L492.734 266.157C492.927 266.025 493.15 265.924 493.403 265.853C493.657 265.782 493.931 265.746 494.225 265.746C494.854 265.746 495.427 265.898 495.944 266.203C496.461 266.497 496.867 266.918 497.161 267.465C497.465 268.003 497.618 268.617 497.618 269.306C497.618 270.047 497.455 270.696 497.131 271.254C496.816 271.801 496.375 272.222 495.807 272.516C495.249 272.811 494.61 272.958 493.89 272.958ZM493.921 271.847C494.377 271.847 494.778 271.746 495.122 271.543C495.477 271.33 495.751 271.036 495.944 270.66C496.137 270.275 496.233 269.839 496.233 269.352C496.233 268.612 496.025 268.008 495.609 267.542C495.204 267.075 494.656 266.842 493.966 266.842C493.51 266.842 493.104 266.948 492.749 267.161C492.394 267.374 492.12 267.673 491.928 268.059C491.735 268.434 491.638 268.865 491.638 269.352C491.638 269.839 491.73 270.275 491.912 270.66C492.105 271.036 492.374 271.33 492.719 271.543C493.064 271.746 493.464 271.847 493.921 271.847Z"></path>
</svg>
