<svg width="201" height="48" viewBox="0 0 201 48" fill="none" xmlns="http://www.w3.org/2000/svg">
<g clip-path="url(#clip0_126_1486)">
<mask id="mask0_126_1486" style="mask-type:luminance" maskUnits="userSpaceOnUse" x="0" y="0" width="201" height="48">
<path d="M201 0H0V48H201V0Z" fill="white"/>
</mask>
<g mask="url(#mask0_126_1486)">
<mask id="mask1_126_1486" style="mask-type:luminance" maskUnits="userSpaceOnUse" x="0" y="0" width="201" height="48">
<path d="M200.84 0H0.160278V48H200.84V0Z" fill="white"/>
</mask>
<g mask="url(#mask1_126_1486)">
<path d="M178.063 12.1553H200.572C200.689 12.1553 200.778 12.2448 200.778 12.3619V16.666C200.778 16.7831 200.689 16.8726 200.572 16.8726H183.261V21.4247H198.695C198.812 21.4247 198.901 21.5142 198.901 21.6313V25.8666C198.901 25.9837 198.812 26.0732 198.695 26.0732H183.261V31.1211H200.572C200.689 31.1211 200.778 31.2106 200.778 31.3277V35.6319C200.778 35.7491 200.689 35.8383 200.572 35.8383H178.063C177.946 35.8383 177.857 35.7491 177.857 35.6319V12.3619C177.857 12.2448 177.946 12.1553 178.063 12.1553Z" fill="#F2F2F2"/>
<path d="M176.214 12.3619V35.6319C176.214 35.7491 176.125 35.8383 176.008 35.8383H171.463C171.401 35.8383 171.347 35.8108 171.312 35.7695L156.62 19.1797V35.6319C156.62 35.7491 156.531 35.8383 156.414 35.8383H151.492C151.375 35.8383 151.285 35.7491 151.285 35.6319V12.3619C151.285 12.2448 151.375 12.1553 151.492 12.1553H156.758C156.82 12.1553 156.875 12.1828 156.909 12.2241L170.879 28.0221V12.3619C170.879 12.2448 170.968 12.1553 171.085 12.1553H176.008C176.125 12.1553 176.214 12.2448 176.214 12.3619Z" fill="#F2F2F2"/>
<path d="M138.745 12.2723L129.877 30.2052L121.042 12.2723C121.008 12.2035 120.939 12.1553 120.857 12.1553H92.8415C92.7245 12.1553 92.6354 12.2448 92.6354 12.3619V35.6319C92.6354 35.7491 92.7245 35.8383 92.8415 35.8383H115.35C115.467 35.8383 115.556 35.7491 115.556 35.6319V31.3277C115.556 31.2106 115.467 31.1211 115.35 31.1211H98.039V26.0732H113.473C113.59 26.0732 113.679 25.9837 113.679 25.8666V21.6313C113.679 21.5142 113.59 21.4247 113.473 21.4247H98.039V16.8726H115.35C115.467 16.8726 115.556 16.7831 115.556 16.666V15.1854C115.556 14.7515 116.148 14.6138 116.34 14.9995L126.625 35.7215C126.659 35.7903 126.728 35.8383 126.811 35.8383H132.778C132.854 35.8383 132.929 35.7971 132.964 35.7215L143.365 14.8273C143.558 14.4348 144.149 14.5725 144.149 15.0132V35.6249C144.149 35.742 144.239 35.8316 144.356 35.8316H149.443C149.56 35.8316 149.649 35.742 149.649 35.6249V12.3619C149.649 12.2448 149.56 12.1553 149.443 12.1553H138.938C138.862 12.1553 138.787 12.1966 138.752 12.2723H138.745Z" fill="#F2F2F2"/>
<path d="M69.5214 35.6319V12.3619C69.5214 12.2448 69.6108 12.1553 69.7278 12.1553H74.815C74.932 12.1553 75.0215 12.2448 75.0215 12.3619V31.1211H90.7857C90.9024 31.1211 90.9918 31.2106 90.9918 31.3277V35.6319C90.9918 35.7491 90.9024 35.8383 90.7857 35.8383H69.7278C69.6108 35.8383 69.5214 35.7491 69.5214 35.6319Z" fill="#F2F2F2"/>
<path d="M67.8784 12.3619V35.6319C67.8784 35.7491 67.7889 35.8383 67.6723 35.8383H62.5847C62.4677 35.8383 62.3783 35.7491 62.3783 35.6319V12.3619C62.3783 12.2448 62.4677 12.1553 62.5847 12.1553H67.6723C67.7889 12.1553 67.8784 12.2448 67.8784 12.3619Z" fill="#F2F2F2"/>
<path d="M43.273 35.8383H38.2817C38.165 35.8383 38.0756 35.7491 38.0756 35.6319V14.2213C38.0756 13.0781 38.9969 12.1553 40.1381 12.1553H60.5292C60.6459 12.1553 60.7353 12.2448 60.7353 12.3619V16.666C60.7353 16.7831 60.6459 16.8726 60.5292 16.8726H43.4792V22.2511H58.6523C58.7689 22.2511 58.8584 22.3406 58.8584 22.4577V26.6654C58.8584 26.7825 58.7689 26.872 58.6523 26.872H43.4792V35.6387C43.4792 35.7558 43.3897 35.8454 43.273 35.8454V35.8383Z" fill="#F2F2F2"/>
<path d="M0.177979 30.0402V21.0039C0.177979 19.2456 1.11497 17.6232 2.63344 16.7471L31.6652 0.00390625V9.17008C31.6652 10.9344 30.7222 12.5628 29.1947 13.4359L0.177979 30.0402Z" fill="#F2F2F2"/>
<path d="M0.177979 48.0036V36.1274L21.2076 24.0762V33.2574C21.2076 35.0308 20.2555 36.6654 18.713 37.5354L0.177979 48.0036Z" fill="#F2F2F2"/>
</g>
</g>
</g>
<defs>
<clipPath id="clip0_126_1486">
<rect width="201" height="48" fill="white"/>
</clipPath>
</defs>
</svg>
