<svg width="75" height="80" viewBox="0 0 75 80" fill="none" xmlns="http://www.w3.org/2000/svg">
<path d="M74.6368 62.4893L64.3679 48.2667C63.7936 47.4637 62.6784 47.2423 61.8312 47.7585L61.0681 48.2301C60.6033 48.5168 60.2845 48.9932 60.1924 49.5333C60.1004 50.0702 60.2432 50.6247 60.5859 51.0485L71.621 64.8074C71.9843 65.2567 72.5348 65.5148 73.098 65.5148C73.1868 65.5148 73.2772 65.5084 73.3677 65.4957C74.0324 65.4001 74.5844 64.9715 74.8478 64.3518C75.1095 63.732 75.0302 63.0326 74.6368 62.4877" fill="#F06731"/>
<path d="M66.0543 42.9595L8.12617 79.1891C7.24095 79.7291 6.27323 80 5.30393 80C4.14902 80 3.01949 79.6208 2.05177 78.8656C0.278157 77.4875 -0.419867 75.1933 0.251188 73.0345L22.3183 3.46541C22.91 1.65711 24.4155 0.36024 26.27 0.0639035C28.1262 -0.234027 29.9521 0.522748 31.0547 2.06338L32.0494 3.41124L31.3244 4.22218C29.335 6.40806 27.8834 8.94445 26.9966 11.7246C26.8887 11.9684 26.8618 12.1038 26.8078 12.2105L10.6803 65.1513C10.5201 65.7997 10.7612 66.5549 11.3529 67.0408C11.9447 67.5268 12.7252 67.608 13.3963 67.2846L55.035 44.0126L29.8458 10.458L29.5841 10.1027C29.5841 10.1027 30.9008 7.36877 32.8759 5.31353C32.887 5.29919 32.9029 5.28485 32.9171 5.27051C32.9695 5.21634 33.0203 5.16536 33.0726 5.11278L59.6578 41.72L64.2267 39.5596C65.1674 39.1007 66.243 39.4528 66.7539 40.3673C67.2361 41.2866 66.9411 42.3923 66.0543 42.9595Z" fill="#F06731"/>
</svg>
