<svg width="160" height="160" viewBox="0 0 160 160" fill="none" xmlns="http://www.w3.org/2000/svg">
<g clip-path="url(#clip0_598_2040)">
<path d="M34.4696 99.1895C34.6647 99.2551 38.2145 102.899 38.7159 103.362C40.2213 104.739 41.7938 106.043 43.4279 107.265C48.991 111.425 55.2245 114.603 61.859 116.661C60.0358 120.239 57.9441 123.957 56.0286 127.507L45.0618 147.826L40.7809 155.749C40.2141 156.796 38.9486 158.987 38.564 160C38.3983 159.529 38.2634 159.044 38.1533 158.558C37.6322 156.258 37.0256 153.962 36.5385 151.656C36.2288 150.643 35.872 148.871 35.6206 147.8L33.8116 140.055C33.5187 138.796 33.2328 137.232 32.7466 136.034C32.512 135.456 31.6385 135.631 31.1502 135.785C29.3151 136.363 27.4861 136.993 25.6577 137.606L16.1013 140.794L11.35 142.363C10.4891 142.644 9.0579 143.046 8.29337 143.452C13.651 134.143 19.2799 124.804 24.7491 115.547L30.9273 105.092C32.0238 103.236 33.2944 100.954 34.4696 99.1895Z" fill="white" fill-opacity="0.09"/>
<path d="M125.47 99.251C126.12 99.7979 130.556 107.603 131.197 108.688L144.889 131.86L149.227 139.205C150.04 140.587 150.875 142.087 151.731 143.431C151.583 143.36 151.432 143.292 151.28 143.228C150.269 142.81 148.234 142.213 147.111 141.839C144.272 140.885 141.427 139.945 138.578 139.019L132.227 136.902C131.034 136.503 129.852 136.085 128.638 135.751C127.667 135.46 127.245 135.667 126.973 136.671C126.535 138.296 126.172 139.962 125.788 141.603L123.477 151.466L121.456 160C120.575 158.112 118.973 155.378 117.929 153.445L111.027 140.633L102.636 125.055C101.193 122.373 99.6039 119.216 98.0867 116.651C107.002 113.88 115.177 109.132 122.002 102.763C123.08 101.751 124.522 100.374 125.47 99.251Z" fill="white" fill-opacity="0.09"/>
<path d="M76.6633 0H84.1078C84.6523 0.202416 86.7367 0.333226 87.4492 0.411059C88.4047 0.518936 89.3563 0.659675 90.3016 0.833023C96.2672 1.85357 102.038 3.79238 107.41 6.58046C121.254 13.7667 131.681 26.1517 136.403 41.0173C141.046 55.7784 139.637 71.7789 132.485 85.5008C125.202 99.318 112.777 109.716 97.8922 114.448C82.9734 119.144 66.795 117.658 52.9809 110.324C39.2337 103.06 28.92 90.6508 24.2929 75.8067C19.698 60.919 21.2432 44.8123 28.5848 31.0697C36.1568 16.8911 49.2099 6.43614 64.6999 2.1433C67.0738 1.47527 69.4887 0.9625 71.9291 0.608232C73.0144 0.459227 75.8016 0.300223 76.6633 0ZM63.7754 49.4272C63.7346 50.7297 63.7394 52.0587 63.7492 53.3627C63.7863 58.2535 63.703 63.1583 63.756 68.0479C64.7836 67.9763 66.0943 68.0448 67.1538 68.0523C67.1898 65.6162 67.1489 63.1679 67.1926 60.742C68.4361 60.8237 70.01 60.4893 70.6827 61.409C71.5494 62.5937 73.138 64.8825 73.746 66.1392C74.1032 66.7448 74.4521 67.3552 74.7926 67.9702C75.9659 68.1405 77.4656 68.0184 78.6813 68.0743C77.0445 65.0018 75.937 63.0584 73.7425 60.2862C75.3116 59.572 76.8277 58.824 77.4634 57.087C77.9743 55.6908 77.9284 53.7288 77.2897 52.3866C75.6366 48.9123 70.3521 48.894 67.1067 49.094C66.0675 49.1905 64.7741 49.3872 63.7754 49.4272ZM100.377 68.0659C104.743 68.1545 109.114 68.0408 113.459 68.1085C113.449 67.2305 113.45 66.3525 113.46 65.4745C111.162 65.4953 108.844 65.4298 106.547 65.4557C105.796 65.4641 104.499 65.3998 103.819 65.4527C103.845 63.8331 103.821 62.217 103.843 60.6026L103.845 59.4984C106.441 59.5602 109.211 59.5088 111.82 59.5048L111.824 57.0004C109.318 56.9471 106.319 56.8799 103.82 56.9378C103.84 55.2744 103.848 53.6109 103.847 51.9473C106.84 51.9284 109.833 51.9288 112.826 51.9486L112.809 49.3248C110.038 49.3567 107.227 49.2739 104.445 49.3091C103.684 49.3188 100.979 49.3915 100.424 49.3028C100.295 53.7243 100.472 58.3137 100.402 62.7466C100.376 64.3809 100.48 66.4799 100.377 68.0659ZM83.0359 49.2764C82.882 53.7305 83.0859 58.4112 83.007 62.882C82.9781 64.5188 83.0805 66.4793 82.9797 68.0781C87.3008 68.1305 91.7664 68.016 96.0508 68.1193C96.0156 67.24 96.0422 66.3512 96.057 65.4707C92.8727 65.4603 89.5914 65.4149 86.4133 65.4384L86.4117 60.958L86.443 59.5125C88.9406 59.5103 91.9313 59.4255 94.3867 59.5164L94.4039 56.9825C91.882 57.0137 88.9024 56.976 86.3789 56.9259C86.4211 55.3116 86.407 53.5814 86.3945 51.9611C89.1219 51.8893 92.6906 51.8681 95.4078 51.9598C95.3477 51.1252 95.3781 50.1627 95.3852 49.3167L87.0172 49.3105C86.2523 49.3123 83.6258 49.3846 83.0359 49.2764ZM47.2593 68.064L50.7172 68.1216C50.6495 67.2769 50.7025 65.9674 50.7098 65.0761L50.7227 59.8473C53.2716 59.8769 56.0645 59.7816 58.571 59.8645L58.5767 59.0526C58.5773 58.4532 58.5684 57.8277 58.5995 57.2315L50.6869 57.2001C50.7716 55.562 50.7138 53.6181 50.7249 51.9482L59.6146 51.9378C59.513 51.057 59.5948 50.1935 59.5546 49.3234C56.867 49.3717 54.0875 49.2602 51.3802 49.3089C50.6491 49.322 47.8258 49.3863 47.3015 49.303C47.1969 53.7031 47.3355 58.2006 47.2816 62.6067C47.2604 64.3374 47.3467 66.3609 47.2593 68.064Z" fill="white" fill-opacity="0.09"/>
<path d="M68.1723 51.8286C69.8328 51.6755 72.9077 51.7443 73.8536 53.3236C74.7735 54.8595 74.2971 56.7232 72.8259 57.6823C70.6795 58.6457 69.3529 58.1811 67.2369 58.4312C67.3264 56.3995 67.2467 54.0124 67.2834 51.9183L68.1723 51.8286Z" fill="white" fill-opacity="0.09"/>
</g>
<defs>
<clipPath id="clip0_598_2040">
<rect width="160" height="160" fill="white"/>
</clipPath>
</defs>
</svg>
