<svg width="160" height="160" viewBox="0 0 160 160" fill="none" xmlns="http://www.w3.org/2000/svg">
<path d="M85.4938 9.78639C87.111 9.70733 88.8969 9.74358 90.5305 9.74405L98.6883 9.75397C98.6047 11.6246 98.6852 14.2147 98.6844 16.134C102.143 16.9319 105.037 17.809 108.202 19.5026C109.35 20.1171 110.37 20.7637 111.49 21.4091C112.527 20.3537 114.965 17.7576 116.034 16.9683C119.125 20.0113 122.172 23.1691 125.281 26.1824C124.841 26.7666 124.014 27.5463 123.471 28.0874C122.578 28.9762 121.69 29.87 120.807 30.7688C123.451 34.9854 125.096 38.5087 126.049 43.4665C127.201 43.6292 130.765 43.5506 132.121 43.5724C131.771 44.0373 131.941 43.9498 131.934 44.4308C131.909 45.9533 132.227 55.9031 131.746 56.5021C130.96 56.5857 126.315 56.3948 126.064 56.6248L126.068 56.7703C125.674 59.6307 124.012 63.8498 122.652 66.3912C122.09 67.441 121.368 68.4851 120.841 69.5193L120.801 69.5999C122.017 70.593 124.026 72.7881 125.281 73.9914C124.662 74.8197 123.391 75.941 122.638 76.7348C120.557 78.9246 118.044 81.1551 116.036 83.373C114.557 81.9933 112.928 80.1433 111.435 78.8668C107.87 81.1769 102.96 83.516 98.7211 84.1254C98.593 85.898 98.6789 88.7379 98.6782 90.5699C94.3071 90.6129 89.8196 90.498 85.4602 90.6019C85.5946 89.1871 85.4868 85.6691 85.4797 84.1324C80.5922 83.2738 76.8675 81.3613 72.6864 78.8801C71.3447 80.2191 69.4295 82.0027 68.231 83.3746C65.1115 80.3793 61.9503 77.1254 58.8844 74.0575C60.1479 72.6495 61.9957 70.8211 63.3847 69.516C60.4254 65.0551 59.33 61.8693 58.0937 56.7979C56.0044 56.8068 53.7309 56.7521 51.6681 56.7951C51.7404 55.3214 51.6948 53.4669 51.6955 51.9596L51.6946 43.5491C53.8261 43.5768 55.9496 43.522 58.09 43.5737C59.035 38.8003 60.7449 34.8267 63.397 30.778C62.0668 29.3391 60.2944 27.658 58.8911 26.2534C60.4796 24.4591 62.5782 22.509 64.2689 20.778C65.135 19.8911 67.2922 17.6622 68.2168 16.9662C69.1297 17.8572 70.0329 18.758 70.9262 19.6687C71.2797 20.0236 72.5286 21.5023 73.0211 21.194C76.747 18.8615 81.0868 16.909 85.4555 16.1948C85.5461 14.3547 85.5118 11.6548 85.4938 9.78639ZM93.5555 73.0876C106.239 72.2774 115.859 61.3301 115.034 48.6473C114.207 35.9644 103.248 26.3576 90.5664 27.1997C77.9068 28.0403 68.3209 38.9759 69.1456 51.6363C69.9703 64.2966 80.8938 73.8964 93.5555 73.0876Z" fill="white" fill-opacity="0.09"/>
<path d="M91.5141 32.1489C101.446 31.8333 109.756 39.6235 110.082 49.5554C110.409 59.4873 102.627 67.8057 92.6953 68.1422C82.7492 68.4791 74.4155 60.6836 74.089 50.737C73.7624 40.7902 81.5664 32.4649 91.5141 32.1489ZM81.0172 54.8666C82.3438 56.1691 83.7578 57.5641 85.0414 58.8984C87.6555 61.6159 89.2234 59.3499 91.2359 57.4171L95.1469 53.6595L101.724 47.3845C102.82 46.3308 104.894 44.9421 104.815 43.281C104.744 41.772 103.409 40.9061 101.961 41.0091C101.882 41.0149 101.803 41.0219 101.725 41.0298C101.343 41.1525 101.062 41.267 100.758 41.5349C99.1953 42.9086 97.6414 44.4302 96.1359 45.8669C93.4781 48.368 90.8414 50.8914 88.2258 53.4368C88.05 53.6097 87.4797 54.2247 87.2195 54.0056C85.3547 52.4352 83.7797 50.1808 81.7688 48.813C80.0906 47.672 77.482 49.6238 78.2516 51.6226C78.7055 52.8032 80.0719 53.9152 81.0172 54.8666Z" fill="white" fill-opacity="0.09"/>
<path d="M138.527 98.3053C139.138 98.2576 139.752 98.2654 140.363 98.3271C142.534 98.5615 145.032 99.5451 146.432 101.282C147.509 102.617 147.114 103.97 145.848 104.957C144.92 105.681 143.998 106.348 143.046 107.037L138.5 110.326L124.548 120.433L110.659 130.49C108.514 132.045 105.303 134.524 103.109 135.882C101.996 136.565 100.773 137.049 99.4954 137.315C96.6485 137.886 92.6719 136.966 89.6985 136.495L72.2976 133.713L66.8071 132.832C63.0492 132.24 60.3979 131.882 56.6257 133.061C53.0827 134.169 50.7036 136.407 47.7239 138.458C46.4954 136.602 44.884 134.492 43.5654 132.671L35.9269 122.124L33.1644 118.32C32.6398 117.598 31.899 116.634 31.4672 115.889C34.0701 113.894 36.9733 111.864 39.6419 109.936L48.3289 103.64C49.658 102.678 52.1111 100.805 53.4623 100.104C54.7319 99.4388 56.1151 99.0193 57.5399 98.8662C60.0031 98.5974 64.805 99.5888 67.5069 100.017L80.6774 102.122L89.7305 103.562C91.4454 103.834 93.2352 104.079 94.9219 104.445C97.8047 105.07 99.5672 108.224 99.8446 110.969C100.023 112.734 99.7094 115.019 97.6657 115.536C97.2251 115.643 96.3008 115.626 95.8461 115.568C94.0016 115.332 92.154 115.013 90.3157 114.717L81.0055 113.228C79.711 113.016 77.5633 112.526 76.3705 112.662C73.6588 112.971 73.5678 117.059 76.4641 117.522C77.5311 117.694 78.668 117.869 79.7133 118.036L86.6899 119.157L92.2258 120.045C94.7946 120.458 96.7516 120.833 99.3922 120.706C107.195 120.333 113.247 115.151 119.321 110.752L130.146 102.91C133.016 100.827 134.927 98.8521 138.527 98.3053Z" fill="white" fill-opacity="0.09"/>
<path d="M23.2774 113.418C23.7358 113.624 26.1811 117.162 26.6184 117.766L31.8725 125.021L47.6737 146.845C46.8034 147.634 44.0506 149.539 43.0209 150.245L40.2367 147.523L12.9215 120.983C14.1219 119.962 15.7315 118.857 17.0361 117.913L23.2774 113.418Z" fill="white" fill-opacity="0.09"/>
<path d="M132.121 43.5732L132.347 43.5743C132.613 43.8671 132.488 44.8162 132.491 45.253L132.503 48.7538C132.505 51.3075 132.627 54.2358 132.47 56.7609C131.589 56.8104 126.629 56.9335 126.068 56.7711L126.064 56.6256C126.315 56.3957 130.96 56.5865 131.746 56.5029C132.227 55.9039 131.909 45.9542 131.934 44.4316C131.941 43.9506 131.771 44.0382 132.121 43.5732Z" fill="white" fill-opacity="0.09"/>
</svg>
