<svg xmlns="http://www.w3.org/2000/svg" width="134" height="94" viewBox="0 0 134 94" fill="none"><path d="M22.3029 15.4495V2.32056H111.662V15.4495H113.582V0.400635H20.3829V15.4495H22.3029Z" fill="#00B5EF"></path><path d="M111.662 77.77V91.6795H22.3029V77.77H20.3829V93.5994H113.582V77.77H111.662Z" fill="#00B5EF"></path><path d="M2.99246 50.1163C2.12935 49.6492 1.4514 49.0025 0.958599 48.1736C0.4658 47.3447 0.220825 46.4189 0.220825 45.3963C0.220825 44.3737 0.4658 43.445 0.958599 42.6189C1.4514 41.79 2.1265 41.1434 2.99246 40.6762C3.85557 40.2091 4.82408 39.9755 5.89798 39.9755C6.97188 39.9755 7.94039 40.2091 8.8035 40.6762C9.66661 41.1434 10.3446 41.7872 10.8374 42.6104C11.3302 43.4336 11.5751 44.3623 11.5751 45.3963C11.5751 46.4303 11.3302 47.3589 10.8374 48.1822C10.3446 49.0054 9.66661 49.6492 8.8035 50.1163C7.94039 50.5835 6.97188 50.8171 5.89798 50.8171C4.82408 50.8171 3.85557 50.5835 2.99246 50.1163ZM7.79511 48.6265C8.35627 48.3103 8.7978 47.8688 9.11969 47.302C9.44157 46.7351 9.60109 46.0999 9.60109 45.3963C9.60109 44.6927 9.44157 44.0575 9.11969 43.4906C8.7978 42.9237 8.35627 42.4822 7.79511 42.166C7.23395 41.8498 6.60157 41.6903 5.89798 41.6903C5.19439 41.6903 4.56201 41.8498 4.00085 42.166C3.43968 42.4822 2.99816 42.9237 2.67627 43.4906C2.35439 44.0575 2.19487 44.6927 2.19487 45.3963C2.19487 46.0999 2.35439 46.7351 2.67627 47.302C2.99816 47.8688 3.43968 48.3103 4.00085 48.6265C4.56201 48.9427 5.19439 49.1022 5.89798 49.1022C6.60157 49.1022 7.23395 48.9427 7.79511 48.6265Z" fill="#00B5EF"></path><path d="M18.7734 40.1236H20.7304V49.0082H26.2423V50.6632H18.7734V40.1236Z" fill="#00B5EF"></path><path d="M33.8907 49.5865C33.0789 48.7689 32.6715 47.5953 32.6715 46.0714V40.1236H34.6285V45.9973C34.6285 48.0653 35.5229 49.0994 37.3089 49.0994C39.095 49.0994 39.9752 48.0653 39.9752 45.9973V40.1236H41.9036V46.0714C41.9036 47.5982 41.4992 48.7689 40.6902 49.5865C39.8812 50.404 38.7503 50.8142 37.2947 50.8142C35.8391 50.8142 34.7054 50.404 33.8907 49.5865Z" fill="#00B5EF"></path><path d="M59.1286 40.1236V50.6632H57.5164L51.7025 43.5248V50.6632H49.7598V40.1236H51.372L57.1859 47.2621V40.1236H59.1286Z" fill="#00B5EF"></path><path d="M73.9157 48.2249H68.6458L67.6061 50.6632H65.5894L70.3322 40.1236H72.2607L77.0177 50.6632H74.9696L73.9157 48.2249ZM73.269 46.6895L71.2808 42.0806L69.3096 46.6895H73.269Z" fill="#00B5EF"></path><path d="M88.5371 40.1236H90.4941V49.0082H96.006V50.6632H88.5371V40.1236Z" fill="#00B5EF"></path><path d="M109.588 48.2249H104.318L103.278 50.6632H101.262L106.004 40.1236H107.933L112.69 50.6632H110.642L109.588 48.2249ZM108.941 46.6895L106.953 42.0806L104.982 46.6895H108.941Z" fill="#00B5EF"></path><path d="M133.997 40.1236L130.505 50.6632H128.428L125.822 42.8639L123.173 50.6632H121.079L117.587 40.1236H119.62L122.241 48.1337L124.967 40.1236H126.773L129.439 48.1793L132.134 40.1236H134H133.997Z" fill="#00B5EF"></path><path d="M55.7162 61.1629C56.2062 61.576 56.4511 62.1457 56.4511 62.8664C56.4511 63.5871 56.2062 64.1568 55.7162 64.567C55.2263 64.9771 54.5483 65.1822 53.6823 65.1822H51.8621V67.3215H51.1443V60.542H53.6823C54.5483 60.542 55.2263 60.7499 55.7162 61.1629ZM55.2035 64.1112C55.5595 63.8178 55.7361 63.4019 55.7361 62.8664C55.7361 62.3308 55.5595 61.895 55.2035 61.6016C54.8474 61.3082 54.3347 61.1601 53.6624 61.1601H51.8621V64.5499H53.6624C54.3347 64.5499 54.8474 64.4017 55.2035 64.1083V64.1112Z" fill="#00B5EF"></path><path d="M59.7469 60.542H60.4648V66.7005H64.2619V67.3215H59.7498V60.542H59.7469Z" fill="#00B5EF"></path><path d="M67.193 60.542H67.9108V66.7005H71.7079V67.3215H67.1958V60.542H67.193Z" fill="#00B5EF"></path><path d="M75.6361 66.9369C75.0977 66.6407 74.6732 66.2276 74.3684 65.7035C74.0637 65.1794 73.907 64.5869 73.907 63.9346C73.907 63.2822 74.0608 62.6926 74.3684 62.1656C74.6761 61.6386 75.1005 61.2284 75.6417 60.9322C76.183 60.6359 76.7897 60.4878 77.462 60.4878C77.9662 60.4878 78.4305 60.5704 78.8578 60.7385C79.285 60.9066 79.6468 61.1515 79.9431 61.4734L79.4873 61.9292C78.9575 61.3937 78.2881 61.1259 77.4819 61.1259C76.9464 61.1259 76.4593 61.2484 76.0206 61.4934C75.5819 61.7383 75.2373 62.0745 74.9894 62.5017C74.7416 62.929 74.6163 63.4047 74.6163 63.9346C74.6163 64.4644 74.7416 64.943 74.9894 65.3674C75.2373 65.7947 75.5819 66.1279 76.0206 66.3758C76.4593 66.6207 76.9464 66.7432 77.4819 66.7432C78.2966 66.7432 78.9632 66.4726 79.4873 65.9285L79.9431 66.3843C79.6468 66.7062 79.2822 66.954 78.8549 67.1249C78.4248 67.2959 77.9576 67.3813 77.4563 67.3813C76.784 67.3813 76.1801 67.2332 75.6389 66.9369H75.6361Z" fill="#00B5EF"></path><path d="M81.7461 67.179C81.6065 67.0394 81.5353 66.8685 81.5353 66.6663C81.5353 66.464 81.6065 66.296 81.7461 66.1621C81.8857 66.0282 82.0509 65.9598 82.2417 65.9598C82.4326 65.9598 82.5978 66.0282 82.7374 66.1621C82.8769 66.296 82.9482 66.464 82.9482 66.6663C82.9482 66.8685 82.8769 67.0394 82.7374 67.179C82.5978 67.3186 82.4326 67.3898 82.2417 67.3898C82.0509 67.3898 81.8857 67.3186 81.7461 67.179Z" fill="#00B5EF"></path></svg>