<svg width="227" height="48" viewBox="0 0 227 48" fill="none" xmlns="http://www.w3.org/2000/svg">
<g clip-path="url(#clip0_126_1550)">
<path d="M11.938 0C14.4858 0.0607124 16.6168 0.660108 18.61 2.30938C22.5943 5.60648 23.4718 11.7765 20.3048 15.9371C18.9024 17.7794 17.2972 19.5793 15.8055 21.3629C18.2097 24.1858 20.986 25.7745 21.3397 29.9308C21.7643 34.9221 17.3546 38.9866 12.6465 39.4226C6.24318 39.804 0.74942 34.9506 0.0791692 28.6106C-0.649885 21.7136 3.7959 18.5465 7.67416 13.7316C6.13344 11.8886 4.58668 10.4334 4.55185 7.83124C4.49412 3.51875 7.65891 0.170599 11.938 0ZM12.1144 18.909C10.9946 20.1364 9.96774 21.4432 8.89279 22.7086C7.66776 24.1507 6.57067 25.6631 6.67168 27.6621C6.75879 29.1227 7.4253 30.4888 8.52331 31.4578C9.56579 32.3854 10.8595 32.7962 12.2383 32.8375C13.8452 32.6852 15.256 32.1391 16.3079 30.8617C17.2377 29.7546 17.6855 28.3221 17.5512 26.8836C17.2932 24.3434 13.8805 21.0053 12.1144 18.909ZM14.9814 6.7082C13.9394 5.84532 12.8701 5.6374 11.5596 5.70272C10.2274 5.99772 9.12052 6.50364 8.35676 7.70744C7.72521 8.7226 7.52039 9.94596 7.78754 11.1109C8.15082 12.6844 10.9552 16.0027 12.123 17.0238L12.2903 17.018L12.372 16.9262C14.1059 14.8402 16.8152 12.3775 16.5691 9.72656C16.467 8.54856 15.8948 7.46088 14.9814 6.7082Z" fill="#EF5821"/>
<path d="M107.255 9.04482L112.747 9.04102L112.743 39.0303L108.901 39.035C108.866 31.6494 108.885 24.2635 108.956 16.8782C109.027 15.6571 109.063 14.4341 109.063 13.2109C107.576 18.0561 105.767 22.6319 103.924 27.3495C102.425 31.2545 100.894 35.1467 99.3287 39.0255L96.0018 39.0285C94.8804 36.5382 93.8535 33.5686 92.7762 30.9962C90.296 25.0758 88.2053 19.3557 86.1804 13.2759C86.1275 16.0981 86.2736 19.0927 86.2904 21.939L86.3101 39.0191L82.6012 39.0328V9.0459L88.1032 9.0415C91.407 17.7289 94.892 25.7629 97.6921 34.6486C98.3787 32.961 98.8559 30.8437 99.5153 29.0829C102.055 22.3879 104.635 15.7085 107.255 9.04482Z" fill="#DDE2E3"/>
<path d="M44.6898 16.3528C46.4309 16.3341 48.2017 16.3503 49.9452 16.3492C49.9324 17.9714 49.9068 19.5935 49.8688 21.2152C49.9624 20.9807 50.0581 20.7472 50.1562 20.5147C50.858 18.8627 52.1936 17.6338 53.8567 16.9718C55.6014 16.2744 57.5535 16.3055 59.275 17.0581C61.3573 17.9707 62.0659 19.1448 62.831 21.1024C63.297 20.0526 63.7302 19.2164 64.5781 18.381C67.8274 15.0325 74.6242 16.2996 75.6683 21.0574C76.0122 22.6241 75.8444 25.7544 75.844 27.428L75.8332 39.0279L70.6214 39.0371L70.6351 29.6409C70.6363 28.3286 70.6407 26.9914 70.6274 25.6803C70.5994 22.9342 69.8844 21.5944 67.0831 21.0402C62.1163 21.0984 62.9743 25.1665 62.9763 28.6657L62.9855 39.0296L57.6945 39.0318C57.7401 35.6605 57.6977 32.2781 57.7165 28.8984C57.7269 27.0551 57.9623 23.5468 56.6259 22.1685C55.1542 20.6728 52.4206 20.7252 50.9657 22.182C49.4676 23.6822 49.9224 27.2423 49.9252 29.3157L49.9432 39.0318L44.6822 39.0403L44.6898 16.3528Z" fill="#EF5821"/>
<path d="M32.5391 16.3243C35.04 16.312 37.4158 17.4673 39.2 19.1907C42.3497 22.2332 41.7388 26.5824 41.7316 30.6392L41.7312 39.0302L36.4155 39.0266L36.4355 35.6579C33.4157 40.4488 27.7637 40.8668 24.125 36.5266C22.0808 33.6698 22.4081 30.2189 24.8596 27.7153C27.8081 24.7044 32.0413 25.0498 35.885 25.2298C36.2655 25.2476 36.4386 25.1646 36.6884 24.9087C36.8169 24.1483 35.8621 22.576 35.2852 22.1556C32.2748 19.9616 29.876 21.5202 27.924 23.8653C26.8504 22.7146 25.6675 21.5937 24.5684 20.4188C24.6782 20.2533 24.7958 20.093 24.9206 19.9384C26.6781 17.7765 29.0454 16.646 31.7865 16.3552C32.0368 16.3366 32.2879 16.3261 32.5391 16.3243ZM36.4515 28.727C35.1762 28.7308 33.5556 28.6901 32.3072 28.7673C31.2562 29.0083 30.4123 29.4455 29.8167 30.3915C29.3121 31.1765 29.1495 32.1332 29.3667 33.0403C29.5982 33.9877 30.197 34.8048 31.0311 35.3122C31.9399 35.8606 32.5358 35.816 33.5673 35.777C37.0895 34.7796 36.4148 31.5782 36.4515 28.727Z" fill="#EF5821"/>
<path d="M175.213 16.2668C181.578 16.235 184.137 19.6865 183.828 25.7293C183.776 26.7663 183.828 28.0916 183.827 29.1535L183.834 39.0191L180.218 39.0281C180.23 37.9326 180.214 36.8367 180.172 35.7418C179.941 36.1173 179.66 36.5574 179.393 36.9023C176.566 40.5448 170.058 40.4632 167.082 37.0488C166.652 36.5567 166.402 36.1069 166.11 35.5285C165.401 33.6897 165.27 30.7271 166.571 29.1473C169.25 25.9567 174.161 26.224 177.922 25.5735C179.786 25.2509 180.369 24.7818 180.079 22.7567C179.49 18.6598 173.442 18.6197 171.031 21.0266C170.46 21.5967 170.11 22.0796 169.643 22.7371C168.65 22.3521 167.25 21.9439 166.211 21.6063C167.655 18.199 170.176 16.965 173.584 16.3391C174.126 16.2985 174.669 16.2742 175.213 16.2668ZM179.932 28.0305C178.898 28.3607 178.134 28.5256 177.076 28.7164C174.759 29.1344 170.823 29.0037 169.539 31.4098C168.802 32.7913 169.4 34.5956 170.598 35.5414C173.65 37.0924 177.787 36.5945 179.545 33.3352C180.275 31.9812 180.171 29.7213 180.126 28.1914L180.027 28.0313L179.932 28.0305Z" fill="#DDE2E3"/>
<path d="M215.202 16.3335C224.214 15.8429 226.769 20.9009 226.741 29.0304L210.371 29.0371C210.666 31.1864 211.145 33.5308 212.979 34.907C215.801 37.0239 220.017 36.882 222.277 34.0656C222.459 33.7506 222.682 33.2186 222.84 32.8691C223.963 33.0791 225.294 33.5183 226.408 33.8539C225.208 36.9673 223.116 38.5592 219.96 39.2718C214.022 40.6492 208.255 37.4286 207.084 31.28C205.815 24.6128 208.01 17.9187 215.202 16.3335ZM216.654 19.4648C212.767 19.742 210.958 22.3551 210.405 25.9543L216.916 25.9558L223.089 25.9554C222.462 22.0305 220.972 19.5455 216.654 19.4648Z" fill="#DDE2E3"/>
<path d="M149.826 8.70957C154.885 8.22753 159.778 10.059 162.283 14.6757C162.983 15.9657 163.276 17.1186 163.621 18.5363C162.341 18.5101 161.06 18.5123 159.782 18.5425C159.635 18.0522 159.457 17.4358 159.26 16.9718C158.466 15.081 156.932 13.5955 155.015 12.8579C152.63 11.8966 149.955 11.9452 147.605 12.9927C139.685 16.514 139.806 32.3106 148.178 35.3596C150.674 36.2682 153.292 36.0245 155.673 34.9416C155.721 34.9189 155.768 34.8951 155.814 34.8704C158.12 33.6368 159.016 31.9973 159.749 29.6462L163.604 29.653C162.369 35.2146 158.859 38.6179 153.127 39.3641C145.193 40.3972 139.13 34.7228 138.281 27.0317C137.748 22.1974 138.319 17.1765 141.463 13.2635C143.523 10.6828 146.538 9.04101 149.826 8.70957Z" fill="#DDE2E3"/>
<path d="M132.634 16.5273L136.662 16.5419C136.009 17.9656 135.29 20.0103 134.719 21.5071L131.39 30.1951L128.136 38.7437C125.943 44.5 124.78 48.9232 117.238 47.262C117.619 46.2976 117.929 45.0944 118.15 44.0844C122.438 44.9844 123.126 42.8284 124.123 39.1665C123.913 38.365 123.341 36.9639 123.026 36.1328L120.857 30.4587C119.099 25.8787 117.381 21.0551 115.536 16.5347L119.509 16.5315C119.966 17.6921 120.398 18.8589 120.816 20.0342C122.685 25.2991 124.71 30.3892 126.083 35.8153C126.862 32.4273 127.895 29.6827 129.075 26.4168L132.634 16.5273Z" fill="#DDE2E3"/>
<path d="M194.383 16.3349C199.068 16.0845 202.504 16.7516 204.272 21.7078C203.175 21.9648 202.081 22.2352 200.991 22.5189C200.591 21.719 200.15 21.0065 199.465 20.4085C197.918 18.8454 193.366 18.997 192.107 20.8785C190.138 23.824 193.01 25.3366 195.359 25.8476C199.096 26.6608 204.163 27.4127 204.619 31.9651C205.094 36.7016 201.15 39.0933 196.964 39.5023C192.439 39.9966 188.35 38.2936 187.051 33.599C188.2 33.2881 189.398 33.044 190.563 32.7914C191.918 37.4265 198.503 37.5462 200.804 33.8105C200.861 33.2206 200.825 32.6054 200.804 32.0116C198.582 28.1118 189.01 30.3738 187.924 24.1697C187.115 19.5513 190.302 17.1522 194.383 16.3349Z" fill="#DDE2E3"/>
</g>
<defs>
<clipPath id="clip0_126_1550">
<rect width="227" height="48" fill="white"/>
</clipPath>
</defs>
</svg>
