<svg width="160" height="160" viewBox="0 0 160 160" fill="none" xmlns="http://www.w3.org/2000/svg">
<g clip-path="url(#clip0_598_2056)">
<path d="M79.3703 21.5911C80.1469 21.5493 81.3414 21.5944 82.0351 21.9386C83.8312 22.8305 85.6523 24.2794 87.3375 25.4035C89.6922 26.9486 92.1 28.4115 94.5562 29.7894C102.212 34.0784 110.491 37.6051 119.069 39.5465C121.259 40.0371 123.473 40.4151 125.702 40.6789C126.942 40.8099 128.185 40.908 129.431 40.9731C131.387 41.063 133.545 40.7904 135.283 41.8067C138.301 43.5716 138.167 46.0651 138.138 49.1244C138.129 51.071 138.073 53.0171 137.973 54.9612C137.173 72.6995 133.403 89.6488 124.175 105.006C114.552 121.018 100.142 133.014 83.6437 141.518C82.5844 142.064 81.925 142.386 80.7594 142.681C78.4461 142.944 76.3075 141.506 74.337 140.442C70.1239 138.181 66.0515 135.667 62.1419 132.914C40.6555 117.687 28.1126 97.3559 23.7179 71.4286C22.5801 64.5372 21.9668 57.5693 21.8833 50.5851C21.8668 49.4373 21.7787 46.8372 21.9455 45.7938C22.0838 44.9014 22.4274 44.0532 22.949 43.316C25.009 40.4625 28.3113 41.1231 31.39 40.9171C33.4518 40.7845 35.5049 40.5408 37.5404 40.1869C46.7722 38.6087 55.9805 34.9237 64.1872 30.4469C67.1476 28.833 70.0389 27.0955 72.8534 25.2389C74.3806 24.2315 75.884 23.0669 77.4543 22.1505C78.0025 21.8305 78.75 21.6925 79.3703 21.5911ZM64.9695 69.4875C62.3478 71.0258 60.5388 72.5462 59.7169 75.6452C59.5498 76.2746 59.4472 76.9194 59.4108 77.5695C59.3308 78.9715 59.3765 80.7402 59.3758 82.1605L59.3748 90.009L59.3773 95.5387C59.3795 98.3402 59.1978 100.382 60.6886 102.896C61.9454 105.03 64.0046 106.572 66.4062 107.179C68.211 107.621 71.0283 107.504 72.9583 107.503L80.5859 107.497L87.268 107.502C91.3883 107.504 94.632 107.903 97.8101 104.753C99.0164 103.58 99.882 102.102 100.315 100.477C100.749 98.7902 100.63 94.7285 100.631 92.8324L100.63 81.9848C100.627 77.9109 101.012 74.6874 97.8476 71.4931C97.1515 70.7906 95.95 69.9223 95.0156 69.5963C94.9867 67.4919 94.9703 65.7859 94.5164 63.6964C93.0078 56.7541 86.5711 52.2729 79.5211 52.6113C77.8672 52.7223 76.619 52.872 75.038 53.3526C69.2084 55.1251 65.4544 60.2401 65.0822 66.2613C65.019 67.2837 65.0648 68.4911 64.9695 69.4875Z" fill="white" fill-opacity="0.09"/>
<path d="M78.9484 56.2777C79.1945 56.2616 79.4406 56.2506 79.6874 56.2447C85.9093 56.1253 90.7695 60.3401 91.1937 66.6224C91.2429 67.3516 91.2562 68.0308 91.2593 68.7615C87.9507 68.8112 84.5281 68.7746 81.2109 68.7762L68.736 68.7743C68.7842 65.4836 69.1057 62.861 71.2543 60.1793C73.2058 57.7436 75.9028 56.6068 78.9484 56.2777Z" fill="white" fill-opacity="0.09"/>
<path d="M79.9594 78.7021C82.0859 78.81 83.5883 80.017 84.0031 82.1193C84.2961 83.6037 83.3594 84.4334 83.1383 85.7482C83.0586 86.2217 83.3688 87.5139 83.4774 88.049L84.2985 92.0686C84.5617 93.3576 85.1508 95.2592 84.3649 96.4279C83.4477 97.7936 81.4375 97.5342 79.993 97.5279C79.4766 97.5334 78.9602 97.5365 78.443 97.5365C74.6811 97.5271 75.0518 95.2686 75.6034 92.5396L76.4333 88.4467C76.5938 87.6545 76.8814 86.3803 76.9084 85.6084L76.9114 85.5037C76.4499 84.6607 76.0741 84.0365 75.9977 83.0451C75.9114 81.9467 76.2676 80.8592 76.9871 80.024C77.8306 79.0592 78.7555 78.7951 79.9594 78.7021Z" fill="white" fill-opacity="0.09"/>
<path d="M155.735 60.0225C157.859 60.2554 157.874 62.2422 158.205 63.9968C158.485 65.4291 158.736 66.8668 158.958 68.3093C162.034 89.2687 156.662 110.592 144.019 127.591C131.274 144.728 112.21 156.062 91.0671 159.076C74.5527 161.398 57.7256 158.48 42.9578 150.732C38.7732 148.527 35.4003 146.272 31.645 143.485C30.6459 144.143 29.7065 144.765 28.6062 145.248C25.5964 146.542 22.1985 146.598 19.1474 145.406C15.9928 144.174 13.4629 141.73 12.1222 138.62C10.7007 135.303 10.8477 131.884 12.1794 128.577C12.3357 128.252 12.4987 127.916 12.6728 127.601C14.2742 124.646 17.0047 122.466 20.241 121.559C23.4992 120.63 26.9949 121.059 29.9326 122.746C32.8292 124.396 34.95 127.131 35.8269 130.347C36.8804 134.248 36.0756 137.332 34.1481 140.723C35.3611 141.488 36.6745 142.522 37.9203 143.355C54.6357 154.506 75.0989 158.553 94.8007 154.604C114.585 150.619 131.993 138.974 143.225 122.206C152.508 108.333 156.961 91.7875 155.896 75.1284C155.634 71.1062 155.06 67.1931 154.195 63.2629C153.841 61.6553 153.798 60.3593 155.735 60.0225Z" fill="white" fill-opacity="0.09"/>
<path d="M76.4822 0.27105C88.8758 -0.27647 101.227 2.07589 112.552 7.14098C114.481 8.00872 116.377 8.94833 118.235 9.95779C119.285 10.5379 120.922 11.5702 121.939 12.0359L122.032 12.0773C122.716 11.3314 123.601 10.6695 124.481 10.1749C127.115 8.71935 130.218 8.36857 133.11 9.19943C135.979 10.0343 138.398 11.9773 139.832 14.5991C141.255 17.2447 141.567 20.3468 140.702 23.2233C139.822 26.0793 137.845 28.4695 135.204 29.8694C132.597 31.2799 129.529 31.5727 126.702 30.6811C123.812 29.7773 121.402 27.7574 120.007 25.0697C118.838 22.775 118.496 20.1476 119.038 17.6301C119.217 16.8076 119.52 15.9849 119.781 15.1806C117.301 13.7972 115.381 12.6251 112.737 11.3634C102.334 6.40297 90.9337 3.88675 79.4094 4.00706C59.2108 4.12974 39.8952 12.3021 25.7422 26.7133C10.4447 42.284 2.57463 63.6768 4.13431 85.4493C4.31172 88.3103 4.79796 91.0939 5.17207 93.9243C5.34587 95.24 4.52069 95.7822 3.38764 96.1587C1.26724 95.654 1.53199 94.6283 1.21862 92.7681C0.730193 89.8618 0.42504 86.929 0.304968 83.9845C0.134922 80.3447 0.195257 76.6968 0.485611 73.0639C2.04109 55.4697 9.36263 38.8814 21.3133 25.8753C35.6104 10.4039 55.4371 1.20222 76.4822 0.27105Z" fill="white" fill-opacity="0.09"/>
</g>
<defs>
<clipPath id="clip0_598_2056">
<rect width="160" height="160" fill="white"/>
</clipPath>
</defs>
</svg>
