<svg width="160" height="160" viewBox="0 0 160 160" fill="none" xmlns="http://www.w3.org/2000/svg">
<mask id="mask0_126_1575" style="mask-type:luminance" maskUnits="userSpaceOnUse" x="0" y="0" width="160" height="160">
<path d="M160 0H0V160H160V0Z" fill="white"/>
</mask>
<g mask="url(#mask0_126_1575)">
<path d="M80.0002 56.666C87.3636 56.666 93.3336 62.636 93.3336 69.9993V76.666H96.6669C98.508 76.666 100 78.1582 100 79.9993V99.9994C100 101.84 98.508 103.333 96.6669 103.333H63.3336C61.4926 103.333 60.0002 101.84 60.0002 99.9994V79.9993C60.0002 78.1582 61.4926 76.666 63.3336 76.666H66.6669V69.9993C66.6669 62.636 72.6369 56.666 80.0002 56.666ZM80.0002 61.666C75.3969 61.666 71.6669 65.3965 71.6669 69.9993V76.666H88.3336V69.9993C88.3336 65.3965 84.6036 61.666 80.0002 61.666Z" fill="#3D3D3D"/>
<path d="M80.7946 -1.2666L83.4135 6.79473H91.8902L85.0324 11.777L87.6524 19.8384L80.7946 14.8562L73.9369 19.8384L76.5557 11.777L69.6989 6.79473H78.1746L80.7946 -1.2666Z" fill="#3D3D3D"/>
<path d="M114.398 11.5332L117.017 19.5945H125.493L118.636 24.5768L121.256 32.6382L114.398 27.656L107.54 32.6382L110.16 24.5768L103.302 19.5945H111.779L114.398 11.5332Z" fill="#3D3D3D"/>
<path d="M45.599 11.5332L42.9796 19.5945H34.5033L41.3607 24.5768L38.7414 32.6382L45.599 27.656L52.4564 32.6382L49.8371 24.5768L56.6946 19.5945H48.2183L45.599 11.5332Z" fill="#3D3D3D"/>
<path d="M122.394 131.533L125.013 139.594H133.49L126.632 144.577L129.252 152.638L122.394 147.655L115.537 152.638L118.155 144.577L111.299 139.594H119.774L122.394 131.533Z" fill="#3D3D3D"/>
<path d="M37.5965 131.533L34.9772 139.594H26.5009L33.3584 144.577L30.7391 152.638L37.5965 147.655L44.4541 152.638L41.8347 144.577L48.6922 139.594H40.2159L37.5965 131.533Z" fill="#3D3D3D"/>
<path d="M143.198 102.734L145.818 110.795H154.294L147.437 115.778L150.056 123.839L143.198 118.857L136.341 123.839L138.96 115.778L132.102 110.795H140.579L143.198 102.734Z" fill="#3D3D3D"/>
<path d="M16.7935 102.734L14.1742 110.795H5.69788L12.5553 115.778L9.93599 123.839L16.7935 118.857L23.651 123.839L21.0317 115.778L27.8892 110.795H19.4129L16.7935 102.734Z" fill="#3D3D3D"/>
<path d="M149.595 67.5342L152.215 75.5955H160.69L153.834 80.5777L156.453 88.6388L149.595 83.6566L142.738 88.6388L145.357 80.5777L138.499 75.5955H146.976L149.595 67.5342Z" fill="#3D3D3D"/>
<path d="M10.3974 67.5342L7.77809 75.5955H-0.698242L6.15931 80.5777L3.53998 88.6388L10.3974 83.6566L17.255 88.6388L14.6356 80.5777L21.4931 75.5955H13.0168L10.3974 67.5342Z" fill="#3D3D3D"/>
<path d="M143.198 32.334L145.818 40.3953H154.294L147.437 45.3775L150.056 53.439L143.198 48.4568L136.341 53.439L138.96 45.3775L132.102 40.3953H140.579L143.198 32.334Z" fill="#3D3D3D"/>
<path d="M16.7921 32.334L14.1727 40.3953H5.69641L12.5539 45.3775L9.93452 53.439L16.7921 48.4568L23.6495 53.439L21.0302 45.3775L27.8877 40.3953H19.4114L16.7921 32.334Z" fill="#3D3D3D"/>
<path d="M80.7946 137.933L83.4135 145.994H91.8902L85.0324 150.976L87.6524 159.037L80.7946 154.055L73.9369 159.037L76.5557 150.976L69.6989 145.994H78.1746L80.7946 137.933Z" fill="#3D3D3D"/>
</g>
</svg>
